<?xml version="1.0" encoding="utf-8"?>
<!-- Generator: Adobe Illustrator 24.3.0, SVG Export Plug-In . SVG Version: 6.00 Build 0)  -->
<svg version="1.1" xmlns="http://www.w3.org/2000/svg" xmlns:xlink="http://www.w3.org/1999/xlink" x="0px" y="0px"
	 viewBox="0 0 53 50.88" style="enable-background:new 0 0 53 50.88;" xml:space="preserve">
<style type="text/css">
	.st0{fill:#808080;}
	.st1{fill:#5B5B5B;}
</style>
<g id="Layer_2">
</g>
<g id="Layer_1">
	<g>
		<g>
			<path class="st1" d="M52.9,27.89c-0.48-4.79-2.61-9.3-6.02-12.71c-2.91-2.91-6.48-4.78-10.23-5.61V6.94
				c1.53-0.38,2.67-1.77,2.67-3.42C39.32,1.58,37.74,0,35.8,0h-7.45c-1.94,0-3.52,1.58-3.52,3.52c0,1.65,1.14,3.03,2.67,3.42v2.64
				c-3.74,0.84-7.29,2.7-10.19,5.61c-0.64,0.64-1.22,1.3-1.76,1.99c-0.03,0-0.05,0-0.08,0H8.09c-0.57,0-1.04,0.46-1.04,1.04
				c0,0.57,0.46,1.04,1.04,1.04h6.05c-0.76,1.27-1.37,2.61-1.84,3.98H1.04C0.46,23.22,0,23.68,0,24.25c0,0.57,0.46,1.04,1.04,1.04
				h10.68c-0.3,1.31-0.47,2.64-0.51,3.98H6.63c-0.57,0-1.04,0.46-1.04,1.04s0.46,1.04,1.04,1.04h4.61c0.09,1.34,0.3,2.67,0.65,3.98
				H5.18c-0.57,0-1.04,0.46-1.04,1.04c0,0.57,0.46,1.04,1.04,1.04h7.37c1.02,2.69,2.6,5.2,4.76,7.36c3.41,3.41,7.93,5.55,12.72,6.02
				c0.68,0.07,1.37,0.1,2.05,0.1c4.04,0,8.03-1.17,11.41-3.37c0.48-0.31,0.61-0.95,0.3-1.43c-0.31-0.48-0.95-0.61-1.43-0.3
				c-7.41,4.82-17.33,3.78-23.59-2.48c-7.35-7.35-7.35-19.3,0-26.64c7.35-7.35,19.3-7.35,26.64,0c6.25,6.25,7.3,16.16,2.49,23.57
				c-0.31,0.48-0.18,1.12,0.3,1.43c0.48,0.31,1.12,0.18,1.43-0.3C52.21,37.38,53.37,32.61,52.9,27.89L52.9,27.89z M26.9,3.52
				c0-0.8,0.65-1.45,1.45-1.45h7.45c0.8,0,1.45,0.65,1.45,1.45c0,0.8-0.65,1.45-1.45,1.45h-7.45C27.55,4.97,26.9,4.32,26.9,3.52
				L26.9,3.52z M29.57,9.22V7.04h5.01v2.17C32.92,9.01,31.23,9.02,29.57,9.22L29.57,9.22z M29.57,9.22"/>
		</g>
		<path class="st1" d="M46.14,42.98c-0.27,0-0.54,0.11-0.73,0.3c-0.19,0.19-0.3,0.46-0.3,0.73c0,0.27,0.11,0.54,0.3,0.73
			c0.19,0.19,0.46,0.3,0.73,0.3c0.27,0,0.54-0.11,0.73-0.3c0.19-0.19,0.3-0.46,0.3-0.73c0-0.27-0.11-0.54-0.3-0.73
			C46.68,43.1,46.42,42.98,46.14,42.98L46.14,42.98z M46.14,42.98"/>
		<path class="st1" d="M32.09,13.91c-8.85,0-16.06,7.2-16.06,16.06c0,8.85,7.2,16.06,16.06,16.06c8.86,0,16.06-7.2,16.06-16.06
			C48.15,21.11,40.95,13.91,32.09,13.91L32.09,13.91z M32.09,43.95c-7.71,0-13.99-6.28-13.99-13.99c0-7.71,6.27-13.99,13.99-13.99
			c7.71,0,13.99,6.28,13.99,13.99C46.08,37.68,39.8,43.95,32.09,43.95L32.09,43.95z M32.09,43.95"/>
		<path class="st1" d="M38.64,21.95l-5.13,5.13c-0.43-0.21-0.91-0.33-1.42-0.33c-0.51,0-0.99,0.12-1.42,0.33l-2.29-2.29
			c-0.4-0.4-1.06-0.4-1.46,0c-0.4,0.4-0.4,1.06,0,1.46l2.29,2.29c-0.21,0.43-0.33,0.91-0.33,1.42c0,1.77,1.44,3.22,3.22,3.22
			c1.77,0,3.22-1.44,3.22-3.22c0-0.51-0.12-0.99-0.33-1.42l5.13-5.13c0.4-0.4,0.4-1.06,0-1.46C39.7,21.55,39.04,21.55,38.64,21.95
			L38.64,21.95z M32.09,31.11c-0.63,0-1.15-0.51-1.15-1.15c0-0.63,0.51-1.15,1.15-1.15c0.63,0,1.15,0.51,1.15,1.15
			C33.24,30.6,32.72,31.11,32.09,31.11L32.09,31.11z M32.09,31.11"/>
		<path class="st1" d="M43.16,28.94H42.2c-0.57,0-1.04,0.46-1.04,1.04c0,0.57,0.46,1.04,1.04,1.04h0.96c0.57,0,1.04-0.46,1.04-1.04
			C44.19,29.41,43.73,28.94,43.16,28.94L43.16,28.94z M43.16,28.94"/>
		<path class="st1" d="M21.98,28.92h-0.96c-0.57,0-1.04,0.46-1.04,1.04c0,0.57,0.46,1.04,1.04,1.04h0.96c0.57,0,1.04-0.46,1.04-1.04
			C23.02,29.38,22.55,28.92,21.98,28.92L21.98,28.92z M21.98,28.92"/>
		<path class="st1" d="M32.1,20.89c0.57,0,1.04-0.46,1.04-1.04V18.9c0-0.57-0.46-1.04-1.04-1.04c-0.57,0-1.04,0.46-1.04,1.04v0.96
			C31.07,20.43,31.53,20.89,32.1,20.89L32.1,20.89z M32.1,20.89"/>
		<path class="st1" d="M32.08,39.04c-0.57,0-1.04,0.46-1.04,1.04v0.96c0,0.57,0.46,1.04,1.04,1.04c0.57,0,1.04-0.46,1.04-1.04v-0.96
			C33.11,39.5,32.65,39.04,32.08,39.04L32.08,39.04z M32.08,39.04"/>
		<path class="st1" d="M1.04,35.32c-0.27,0-0.54,0.11-0.73,0.3C0.11,35.81,0,36.08,0,36.35c0,0.27,0.11,0.54,0.3,0.73
			c0.19,0.19,0.46,0.3,0.73,0.3c0.27,0,0.54-0.11,0.73-0.3c0.19-0.19,0.3-0.46,0.3-0.73c0-0.27-0.11-0.54-0.3-0.73
			C1.57,35.43,1.31,35.32,1.04,35.32L1.04,35.32z M1.04,35.32"/>
	</g>
</g>
</svg>
