<?xml version="1.0" encoding="utf-8"?>
<!-- Generator: Adobe Illustrator 24.3.0, SVG Export Plug-In . SVG Version: 6.00 Build 0)  -->
<svg version="1.1" xmlns="http://www.w3.org/2000/svg" xmlns:xlink="http://www.w3.org/1999/xlink" x="0px" y="0px"
	 viewBox="0 0 54.88 55.53" style="enable-background:new 0 0 54.88 55.53;" xml:space="preserve">
<style type="text/css">
	.st0{fill:#808080;}
	.st1{fill:#5B5B5B;}
</style>
<g id="Layer_2">
</g>
<g id="Layer_1">
	<g>
		<g>
			<path class="st1" d="M54.74,35.2l-8.76-13.15c-0.15-0.23-0.41-0.36-0.68-0.36c-0.27,0-0.53,0.14-0.68,0.36L35.85,35.2
				c-0.17,0.25-0.18,0.57-0.04,0.84c0.14,0.26,0.42,0.43,0.72,0.43h3.57v6c-1.11-1.53-2.74-2.69-4.66-3.21L31.1,38.1v-2.31
				c2.06-1.23,3.45-3.45,3.5-6h0.94c1.42,0,2.57-1.15,2.57-2.57c0-1.21-0.84-2.23-1.97-2.5v-2.21c0-2.87-1.38-5.42-3.51-7.03v-0.7
				h3.57c0.3,0,0.58-0.17,0.72-0.43c0.14-0.26,0.13-0.59-0.04-0.84L28.12,0.36C27.96,0.14,27.71,0,27.44,0
				c-0.27,0-0.53,0.14-0.68,0.36l-3.08,4.62c-0.25,0.37-0.15,0.88,0.23,1.13c0.37,0.25,0.88,0.15,1.13-0.23l2.4-3.6l7.25,10.87
				h-2.86c-0.45,0-0.81,0.36-0.81,0.81v0.54c-1.12-0.52-2.37-0.81-3.68-0.81c-1.23,0-2.4,0.25-3.46,0.71v-0.44
				c0-0.45-0.36-0.81-0.81-0.81h-2.86l2.74-4.11c0.25-0.37,0.15-0.88-0.23-1.13c-0.37-0.25-0.88-0.15-1.13,0.23L18,13.51
				c-0.17,0.25-0.18,0.57-0.04,0.83c0.14,0.26,0.42,0.43,0.72,0.43h3.57v0.54c-2.25,1.6-3.72,4.22-3.72,7.19v2.28
				c-1.02,0.34-1.75,1.3-1.75,2.43c0,1.42,1.15,2.57,2.57,2.57h0.94c0.05,2.55,1.45,4.78,3.5,6v2.31l-4.34,1.16
				c-1.92,0.52-3.55,1.67-4.66,3.21v-6h3.57c0.3,0,0.58-0.17,0.72-0.43c0.14-0.26,0.13-0.59-0.04-0.84l-8.77-13.15
				c-0.15-0.23-0.4-0.36-0.68-0.36c-0.27,0-0.53,0.14-0.68,0.36L0.14,35.2c-0.17,0.25-0.18,0.57-0.04,0.84
				c0.14,0.26,0.42,0.43,0.72,0.43h3.57v9.76c0,0.45,0.36,0.81,0.81,0.81c0.45,0,0.81-0.36,0.81-0.81V35.66
				c0-0.45-0.36-0.81-0.81-0.81H2.33l7.25-10.87l7.25,10.87h-2.86c-0.45,0-0.81,0.36-0.81,0.81v18.25H6.01v-3.88
				c0-0.45-0.36-0.81-0.81-0.81c-0.45,0-0.81,0.36-0.81,0.81v4.7c0,0.45,0.36,0.81,0.81,0.81h44.48c0.45,0,0.81-0.36,0.81-0.81
				v-9.35c0-0.45-0.36-0.81-0.81-0.81c-0.45,0-0.81,0.36-0.81,0.81v8.54h-7.14V35.66c0-0.45-0.36-0.81-0.81-0.81h-2.86l7.25-10.87
				l7.25,10.87h-2.86c-0.45,0-0.81,0.36-0.81,0.81v5.92c0,0.45,0.36,0.81,0.81,0.81c0.45,0,0.81-0.36,0.81-0.81v-5.1h3.57
				c0.3,0,0.58-0.17,0.72-0.43C54.92,35.78,54.91,35.45,54.74,35.2L54.74,35.2z M25.71,41.95l-0.79,0.66
				c-0.37,0.31-0.84,0.4-1.29,0.26c-0.46-0.14-0.79-0.49-0.92-0.95l-0.48-1.72l1.68-0.45C24.2,40.7,24.85,41.49,25.71,41.95
				L25.71,41.95z M30.95,39.74l1.68,0.45l-0.48,1.72c-0.13,0.46-0.46,0.8-0.92,0.95c-0.46,0.14-0.93,0.05-1.29-0.26l-0.79-0.66
				C30.02,41.49,30.68,40.7,30.95,39.74L30.95,39.74z M36.49,27.22c0,0.52-0.42,0.94-0.94,0.94h-0.94v-1.88h0.94
				C36.06,26.28,36.49,26.7,36.49,27.22L36.49,27.22z M20.14,22.51c0-3.96,3.22-7.18,7.18-7.18c3.96,0,7.19,3.22,7.19,7.18v2.14
				h-2.69c-0.76,0-1.38-0.62-1.38-1.38c0-0.45-0.36-0.81-0.81-0.81c-0.45,0-0.81,0.36-0.81,0.81c0,0.76-0.62,1.38-1.38,1.38h-7.29
				V22.51z M18.39,27.22c0-0.52,0.42-0.94,0.94-0.94h0.94v1.88h-0.94C18.81,28.16,18.39,27.74,18.39,27.22L18.39,27.22z M21.9,29.63
				v-3.35h5.54c0.86,0,1.64-0.37,2.19-0.95c0.55,0.58,1.33,0.95,2.19,0.95h1.16v3.35c0,3.06-2.49,5.54-5.54,5.54
				C24.38,35.17,21.9,32.69,21.9,29.63L21.9,29.63z M27.44,36.8c0.71,0,1.39-0.1,2.04-0.3v2.22c0,1.12-0.91,2.04-2.04,2.04
				c-1.12,0-2.04-0.91-2.04-2.04V36.5C26.05,36.69,26.73,36.8,27.44,36.8L27.44,36.8z M14.78,47.46c0-3.1,2.09-5.82,5.08-6.62
				l0.81-0.22l0.48,1.73c0.27,0.99,1.02,1.76,2,2.07c0.3,0.09,0.6,0.14,0.9,0.14c0.69,0,1.37-0.24,1.92-0.7l1.47-1.23l1.47,1.23
				c0.55,0.46,1.23,0.7,1.92,0.7c0.3,0,0.6-0.05,0.9-0.14c0.98-0.31,1.73-1.08,2-2.07l0.48-1.73l0.81,0.22
				c2.99,0.8,5.08,3.53,5.08,6.62v6.45h-3.63v-4.98c0-0.45-0.36-0.81-0.81-0.81c-0.45,0-0.81,0.36-0.81,0.81v4.98H20.03v-4.98
				c0-0.45-0.36-0.81-0.81-0.81c-0.45,0-0.81,0.36-0.81,0.81v4.98h-3.63V47.46z M14.78,47.46"/>
		</g>
	</g>
</g>
</svg>
