<?xml version="1.0" encoding="utf-8"?>
<!-- Generator: Adobe Illustrator 24.3.0, SVG Export Plug-In . SVG Version: 6.00 Build 0)  -->
<svg version="1.1" xmlns="http://www.w3.org/2000/svg" xmlns:xlink="http://www.w3.org/1999/xlink" x="0px" y="0px"
	 viewBox="0 0 48.12 60.15" style="enable-background:new 0 0 48.12 60.15;" xml:space="preserve">
<style type="text/css">
	.st0{fill:#808080;}
	.st1{fill:#5B5B5B;}
</style>
<g id="Layer_2">
</g>
<g id="Layer_1">
	<g>
		<path class="st1" d="M43.11,6.01h-1v-1C42.1,2.25,39.86,0,37.09,0H5.01C2.25,0,0,2.25,0,5.01v44.11c0,2.77,2.25,5.01,5.01,5.01h1
			v1c0,2.77,2.25,5.01,5.01,5.01h32.08c2.77,0,5.01-2.25,5.01-5.01V11.03C48.11,8.26,45.87,6.02,43.11,6.01L43.11,6.01z M34.08,2
			v4.6l-1.3-1.3c-0.39-0.39-1.03-0.39-1.42,0l-1.3,1.3V2H34.08z M2,49.12V5.01C2,3.35,3.35,2,5.01,2h23.06v7.02
			c0,0.41,0.24,0.77,0.62,0.93c0.37,0.16,0.81,0.07,1.09-0.22l2.3-2.3l2.3,2.3c0.29,0.29,0.72,0.37,1.09,0.22
			c0.37-0.16,0.62-0.52,0.62-0.93V2h1c1.66,0,3.01,1.35,3.01,3.01v44.11c0,1.66-1.35,3.01-3.01,3.01H5.01
			C3.35,52.13,2,50.78,2,49.12L2,49.12z M46.11,55.14c0,1.66-1.35,3.01-3.01,3.01H11.03c-1.66,0-3.01-1.35-3.01-3.01v-1h29.07
			c2.77,0,5.01-2.25,5.01-5.01V8.02h1c1.66,0,3.01,1.35,3.01,3.01V55.14z M46.11,55.14"/>
		<path class="st1" d="M15.97,9.68c-0.14-0.39-0.52-0.65-0.93-0.66H7.02c-0.55,0-1,0.45-1,1v8.02c0,0.55,0.45,1,1,1h8.02
			c0.55,0,1-0.45,1-1v-5.6l2.71-2.71l-1.42-1.42L15.97,9.68z M14.03,17.04H8.02v-6.01h6.01v0.59l-2,2l-1.3-1.3l-1.42,1.42l2,2
			c0.39,0.39,1.03,0.39,1.42,0l1.3-1.3V17.04z M14.03,17.04"/>
		<path class="st1" d="M17.34,22.35l-1.37,1.37c-0.14-0.39-0.52-0.65-0.93-0.66H7.02c-0.55,0-1,0.45-1,1v8.02c0,0.55,0.45,1,1,1
			h8.02c0.55,0,1-0.45,1-1v-5.6l2.71-2.71L17.34,22.35z M14.03,31.08H8.02v-6.01h6.01v0.59l-2,2l-1.3-1.3l-1.42,1.42l2,2
			c0.39,0.39,1.03,0.39,1.42,0l1.3-1.3V31.08z M14.03,31.08"/>
		<path class="st1" d="M15.04,36.09H7.02c-0.55,0-1,0.45-1,1v8.02c0,0.55,0.45,1,1,1h8.02c0.55,0,1-0.45,1-1v-8.02
			C16.04,36.54,15.59,36.09,15.04,36.09L15.04,36.09z M14.03,44.11H8.02v-6.01h6.01V44.11z M14.03,44.11"/>
		<rect x="20.05" y="15.04" class="st1" width="10.02" height="2"/>
		<rect x="20.05" y="11.03" class="st1" width="6.01" height="2"/>
		<rect x="20.05" y="29.07" class="st1" width="10.02" height="2"/>
		<rect x="20.05" y="25.06" class="st1" width="6.01" height="2"/>
		<rect x="20.05" y="42.1" class="st1" width="10.02" height="2"/>
		<rect x="20.05" y="38.09" class="st1" width="6.01" height="2"/>
		<rect x="28.07" y="38.09" class="st1" width="2" height="2"/>
	</g>
</g>
</svg>
