<?xml version="1.0" encoding="utf-8"?>
<!-- Generator: Adobe Illustrator 24.3.0, SVG Export Plug-In . SVG Version: 6.00 Build 0)  -->
<svg version="1.1" xmlns="http://www.w3.org/2000/svg" xmlns:xlink="http://www.w3.org/1999/xlink" x="0px" y="0px"
	 viewBox="0 0 46 56.08" style="enable-background:new 0 0 46 56.08;" xml:space="preserve">
<style type="text/css">
	.st0{fill:#808080;}
	.st1{fill:#5B5B5B;}
</style>
<g id="Layer_2">
</g>
<g id="Layer_1">
	<g>
		<g>
			<path class="st1" d="M5.48,22.56c-0.6,0-1.1,0.49-1.1,1.1c0,0.6,0.49,1.1,1.1,1.1c0.6,0,1.1-0.49,1.1-1.1
				C6.57,23.05,6.08,22.56,5.48,22.56L5.48,22.56z M5.48,22.56"/>
			<path class="st1" d="M44.9,9.42c-11.94,0-18.35-6.38-20.46-8.47c-0.43-0.43-0.64-0.64-0.87-0.78c-0.35-0.22-0.8-0.22-1.15,0
				c-0.16,0.1-0.28,0.22-0.59,0.52C21.06,1.44,19.23,3.23,16.4,5C11.71,7.93,6.56,9.42,1.1,9.42c-0.6,0-1.1,0.49-1.1,1.1v14.37
				c0,6.9,2.18,13.47,6.29,19c4.46,6,10.29,10.31,16.39,12.15c0.1,0.03,0.21,0.05,0.31,0.05c0.11,0,0.21-0.02,0.31-0.05
				c6.11-1.83,11.93-6.15,16.39-12.15c4.12-5.53,6.29-12.1,6.29-19V10.51C46,9.91,45.51,9.42,44.9,9.42L44.9,9.42z M43.81,24.88
				c0,6.42-2.03,12.54-5.86,17.69C33.84,48.1,28.54,52.08,23,53.83c-5.54-1.75-10.84-5.74-14.95-11.26
				c-3.83-5.15-5.86-11.27-5.86-17.69V11.59c5.47-0.19,10.64-1.78,15.38-4.74c2.65-1.66,4.47-3.32,5.44-4.25
				c2.3,2.28,8.85,8.62,20.8,8.99V24.88z M43.81,24.88"/>
		</g>
		<path class="st1" d="M40.64,13.57c-6.03-0.67-11.75-3.11-17-7.25C23.25,6.01,22.7,6,22.3,6.31c-5.2,3.98-11.22,6.55-16.96,7.24
			c-0.55,0.07-0.97,0.53-0.97,1.09v4.64c0,0.6,0.49,1.1,1.1,1.1c0.6,0,1.1-0.49,1.1-1.1v-3.69c4.17-0.63,10.08-2.4,16.39-7.04
			c5.11,3.87,10.64,6.25,16.47,7.07v9.26c0,5.47-1.73,10.69-4.99,15.08c-3.13,4.21-7.08,7.29-11.43,8.92
			c-4.36-1.63-8.3-4.71-11.43-8.92c-2.64-3.54-4.3-7.71-4.82-12.06c-0.07-0.6-0.62-1.03-1.22-0.96c-0.6,0.07-1.03,0.62-0.96,1.22
			c0.56,4.73,2.37,9.26,5.24,13.11c3.48,4.68,7.91,8.07,12.82,9.81c0.12,0.04,0.24,0.06,0.37,0.06c0.12,0,0.25-0.02,0.37-0.06
			c4.91-1.74,9.35-5.13,12.83-9.81c3.55-4.77,5.43-10.44,5.43-16.39V14.66C41.62,14.1,41.2,13.63,40.64,13.57L40.64,13.57z
			 M40.64,13.57"/>
		<path class="st1" d="M33.87,24.01c-0.13-0.4-0.47-0.69-0.88-0.75l-6.25-0.91l-2.8-5.67c-0.18-0.37-0.57-0.61-0.98-0.61
			c-0.42,0-0.8,0.24-0.98,0.61l-2.8,5.67l-6.25,0.91c-0.41,0.06-0.76,0.35-0.88,0.75c-0.13,0.4-0.02,0.83,0.28,1.12l4.52,4.41
			l-1.07,6.23c-0.07,0.41,0.1,0.83,0.44,1.07c0.19,0.14,0.42,0.21,0.64,0.21c0.17,0,0.35-0.04,0.51-0.13l5.59-2.94l5.59,2.94
			c0.37,0.19,0.82,0.16,1.15-0.08c0.34-0.25,0.51-0.66,0.44-1.07l-1.07-6.23l4.52-4.41C33.89,24.84,34,24.4,33.87,24.01L33.87,24.01
			z M27.13,28.38c-0.26,0.25-0.38,0.61-0.31,0.97l0.79,4.61l-4.14-2.18c-0.32-0.17-0.7-0.17-1.02,0l-4.14,2.18l0.79-4.61
			c0.06-0.36-0.06-0.72-0.31-0.97l-3.35-3.26l4.63-0.67c0.36-0.05,0.67-0.28,0.82-0.6l2.07-4.19l2.07,4.19
			c0.16,0.32,0.47,0.55,0.82,0.6l4.63,0.67L27.13,28.38z M27.13,28.38"/>
	</g>
</g>
</svg>
