<?xml version="1.0" encoding="utf-8"?>
<!-- Generator: Adobe Illustrator 24.3.0, SVG Export Plug-In . SVG Version: 6.00 Build 0)  -->
<svg version="1.1" xmlns="http://www.w3.org/2000/svg" xmlns:xlink="http://www.w3.org/1999/xlink" x="0px" y="0px"
	 viewBox="0 0 53.91 53.93" style="enable-background:new 0 0 53.91 53.93;" xml:space="preserve">
<style type="text/css">
	.st0{fill:#808080;}
	.st1{fill:#5B5B5B;}
</style>
<g id="Layer_2">
</g>
<g id="Layer_1">
	<g>
		<path class="st1" d="M53.04,5.22c0.48,0,0.87-0.39,0.87-0.87V0.87c0-0.48-0.39-0.87-0.87-0.87H0.87C0.39,0,0,0.39,0,0.87v3.48
			c0,0.48,0.39,0.87,0.87,0.87h0.87v31.3H0.87C0.39,36.52,0,36.91,0,37.39v3.48c0,0.48,0.39,0.87,0.87,0.87h25.22v5.34
			c-1.7,0.44-2.8,2.07-2.58,3.81c0.22,1.74,1.7,3.04,3.45,3.04s3.23-1.3,3.45-3.04c0.22-1.74-0.88-3.37-2.58-3.81v-5.34h25.22
			c0.48,0,0.87-0.39,0.87-0.87v-3.48c0-0.48-0.39-0.87-0.87-0.87h-0.87V5.22H53.04z M28.7,50.43c0,0.7-0.42,1.34-1.07,1.61
			c-0.65,0.27-1.4,0.12-1.9-0.38c-0.5-0.5-0.65-1.25-0.38-1.9c0.27-0.65,0.9-1.07,1.61-1.07C27.92,48.7,28.7,49.47,28.7,50.43
			L28.7,50.43z M1.74,1.74h50.43v1.74H1.74V1.74z M52.17,40H1.74v-1.74h50.43V40z M50.43,36.52H3.48V5.22h46.96V36.52z M50.43,36.52
			"/>
		<path class="st1" d="M6.09,33.04h27.83c0.48,0,0.87-0.39,0.87-0.87v-3.12l0.25,0.25c0.16,0.16,0.38,0.25,0.61,0.25H48.7v-1.74
			H36.01l-1.23-1.23v-8.85l2.1-2.1H48.7v-1.74H36.52c-0.23,0-0.45,0.09-0.61,0.25l-1.12,1.12V9.57c0-0.48-0.39-0.87-0.87-0.87H6.09
			c-0.48,0-0.87,0.39-0.87,0.87v22.61c0,0.23,0.09,0.45,0.25,0.61C5.64,32.95,5.86,33.04,6.09,33.04L6.09,33.04z M6.96,27.83h12.17
			v3.48H6.96V27.83z M19.13,22.61v3.48H6.96v-3.48H19.13z M6.96,20.87v-3.48h12.17v3.48H6.96z M20.87,31.3v-3.48h12.17v3.48H20.87z
			 M31.92,23.73l-1.23,1.23l1.12,1.12H20.87v-3.48h12.17v2.25L31.92,23.73z M33.04,20.87H20.87v-3.48h11.81l-1.99,1.99l1.23,1.23
			l1.12-1.12V20.87z M33.04,15.65H20.87v-5.22h12.17V15.65z M19.13,10.43v5.22H6.96v-5.22H19.13z M19.13,10.43"/>
		<rect x="22.61" y="12.17" class="st1" width="6.09" height="1.74"/>
		<rect x="8.7" y="12.17" class="st1" width="5.22" height="1.74"/>
		<rect x="15.65" y="12.17" class="st1" width="1.74" height="1.74"/>
		<rect x="30.43" y="12.17" class="st1" width="1.74" height="1.74"/>
		<rect x="36.52" y="10.43" class="st1" width="8.7" height="1.74"/>
		<rect x="46.96" y="10.43" class="st1" width="1.74" height="1.74"/>
		<rect x="36.52" y="24.35" class="st1" width="8.7" height="1.74"/>
		<rect x="46.96" y="24.35" class="st1" width="1.74" height="1.74"/>
	</g>
</g>
</svg>
