<?xml version="1.0" encoding="utf-8"?>
<!-- Generator: Adobe Illustrator 24.3.0, SVG Export Plug-In . SVG Version: 6.00 Build 0)  -->
<svg version="1.1" xmlns="http://www.w3.org/2000/svg" xmlns:xlink="http://www.w3.org/1999/xlink" x="0px" y="0px"
	 viewBox="0 0 54.16 54.16" style="enable-background:new 0 0 54.16 54.16;" xml:space="preserve">
<style type="text/css">
	.st0{fill:#808080;}
	.st1{fill:#5B5B5B;}
</style>
<g id="Layer_2">
</g>
<g id="Layer_1">
	<path class="st1" d="M52.41,6.99c0.96,0,1.75-0.78,1.75-1.75v-3.5l-0.39-0.26C52.33,0.51,50.65,0,48.92,0c-3.15,0-6,1.66-7.56,4.37
		h-1.18c0-1.93-1.57-3.49-3.49-3.49c-1.05,0-1.98,0.47-2.62,1.21c-0.64-0.73-1.57-1.21-2.62-1.21c-1.05,0-1.98,0.47-2.62,1.21
		c-0.64-0.73-1.57-1.21-2.62-1.21s-1.98,0.47-2.62,1.21c-0.64-0.73-1.57-1.21-2.62-1.21c-1.93,0-3.49,1.57-3.49,3.49H12.8
		C11.24,1.66,8.39,0,5.24,0C3.51,0,1.83,0.51,0.39,1.48L0,1.74v3.5C0,6.2,0.78,6.99,1.75,6.99h4.37v3.49H1.75
		C0.78,10.48,0,11.27,0,12.23v3.5l0.39,0.26c1.44,0.97,3.12,1.48,4.86,1.48c0.61,0,1.21-0.08,1.79-0.2l-0.95,0.95l4.45,4.45
		c-0.28,0.59-0.53,1.19-0.75,1.79H3.49v12.23h6.29c0.21,0.6,0.46,1.19,0.75,1.79l-4.45,4.45l8.65,8.65l4.45-4.45
		c0.59,0.29,1.19,0.54,1.79,0.75v6.29h12.23v-6.29c0.6-0.21,1.19-0.46,1.79-0.75l4.45,4.45l8.65-8.65l-4.45-4.45
		c0.28-0.59,0.53-1.19,0.75-1.79h6.29V24.46h-6.29c-0.21-0.6-0.46-1.19-0.75-1.79l4.45-4.45l-0.95-0.95c0.58,0.12,1.18,0.2,1.79,0.2
		c1.73,0,3.41-0.51,4.86-1.48l0.39-0.26v-3.5c0-0.96-0.78-1.75-1.75-1.75h-4.37V6.99H52.41z M37.11,25.27
		c0.86,1.63,1.32,3.44,1.32,5.31c0,2.75-0.99,5.28-2.62,7.25V26.57L37.11,25.27z M34.07,25.84v8.22h-1.75v1.75h1.75v3.69
		c-1.93,1.51-4.35,2.42-6.99,2.42s-5.06-0.91-6.99-2.42v-3.69h10.48v-1.75H20.09v-8.26L14,20.48c-0.57-0.5-0.89-1.22-0.89-1.97
		v-7.59c0-1.2,0.98-2.18,2.18-2.18s2.18,0.98,2.18,2.18v3.93v0.39l8.16,7.25l1.16-1.31l-3.88-3.45c0.25-0.17,0.49-0.36,0.69-0.59
		c0.64,0.73,1.57,1.2,2.61,1.2c1.05,0,1.98-0.47,2.62-1.21c0.64,0.73,1.57,1.21,2.62,1.21c1.05,0,1.98-0.47,2.62-1.21
		c0.64,0.73,1.57,1.21,2.62,1.21c0.64,0,1.23-0.19,1.75-0.49v3.62L34.07,25.84z M16.97,25.4l1.38,1.2v11.22
		c-1.64-1.97-2.62-4.49-2.62-7.25C15.72,28.77,16.15,26.99,16.97,25.4z M36.69,2.62c0.96,0,1.75,0.78,1.75,1.75v0.87v9.61
		c0,0.96-0.78,1.75-1.75,1.75c-0.96,0-1.75-0.78-1.75-1.75V4.37C34.94,3.4,35.72,2.62,36.69,2.62z M31.45,2.62
		c0.96,0,1.75,0.78,1.75,1.75v10.48c0,0.96-0.78,1.75-1.75,1.75s-1.75-0.78-1.75-1.75V4.37C29.7,3.4,30.48,2.62,31.45,2.62z
		 M26.21,2.62c0.96,0,1.75,0.78,1.75,1.75v10.48c0,0.96-0.78,1.75-1.75,1.75s-1.75-0.78-1.75-1.75V4.37
		C24.46,3.4,25.24,2.62,26.21,2.62z M19.22,4.37c0-0.96,0.78-1.75,1.75-1.75s1.75,0.78,1.75,1.75v10.48c0,0.76-0.49,1.42-1.19,1.66
		l-2.3-2.05v-3.54V4.37z M1.75,14.78v-2.55h6.11V5.24H1.75V2.69c1.06-0.62,2.26-0.94,3.49-0.94c2.67,0,5.06,1.49,6.25,3.88
		l0.24,0.48h5.73v1.54c-0.63-0.42-1.38-0.67-2.18-0.67c-2.17,0-3.93,1.76-3.93,3.93v1.16c-1.23,2.25-3.54,3.65-6.11,3.65
		C4.01,15.72,2.81,15.4,1.75,14.78z M41.49,22.34l0.3,0.57c0.46,0.89,0.84,1.79,1.12,2.69l0.19,0.61h5.81v8.74h-5.81l-0.19,0.61
		c-0.28,0.89-0.66,1.8-1.13,2.69l-0.3,0.57l4.12,4.12l-6.18,6.18l-4.12-4.12l-0.57,0.3c-0.89,0.47-1.8,0.84-2.69,1.12l-0.61,0.19
		v5.81h-8.74V46.6l-0.61-0.19c-0.89-0.28-1.8-0.66-2.69-1.12l-0.57-0.3l-4.12,4.12l-6.18-6.18l4.12-4.12l-0.3-0.57
		c-0.47-0.89-0.84-1.8-1.13-2.69l-0.19-0.61H5.24v-8.74h5.81l0.19-0.61c0.28-0.9,0.66-1.8,1.12-2.69l0.3-0.57l-4.12-4.12l2.81-2.81
		v3.09c0,1.26,0.54,2.46,1.49,3.29l2.78,2.43c-1.08,1.94-1.65,4.12-1.65,6.35c0,7.22,5.88,13.1,13.1,13.1s13.1-5.88,13.1-13.1
		c0-2.34-0.61-4.6-1.78-6.59l1.78-1.78v-7.35V13.1h0.31l5.12,5.12L41.49,22.34z M52.41,12.23v2.55c-1.06,0.62-2.26,0.94-3.49,0.94
		c-2.67,0-5.06-1.49-6.25-3.88l-0.24-0.48h-2.24V6.11h2.24l0.24-0.48c1.19-2.4,3.59-3.88,6.25-3.88c1.23,0,2.43,0.32,3.49,0.94v2.55
		H46.3v6.99H52.41z"/>
</g>
</svg>
