<?xml version="1.0" encoding="utf-8"?>
<!-- Generator: Adobe Illustrator 24.3.0, SVG Export Plug-In . SVG Version: 6.00 Build 0)  -->
<svg version="1.1" xmlns="http://www.w3.org/2000/svg" xmlns:xlink="http://www.w3.org/1999/xlink" x="0px" y="0px"
	 viewBox="0 0 66.91 57.27" style="enable-background:new 0 0 66.91 57.27;" xml:space="preserve">
<style type="text/css">
	.st0{fill:#808080;}
	.st1{fill:#5B5B5B;}
</style>
<g id="Layer_2">
</g>
<g id="Layer_1">
	<g>
		<g>
			<path class="st1" d="M65.49,13.14L53.77,1.43c-1.71-1.71-4.35-1.9-6.29-0.47l-6.33,4.67c-0.23,0.17-0.37,0.43-0.4,0.72
				c-0.02,0.28,0.08,0.56,0.28,0.77l1.52,1.52l-6.7,6.7h-4.82l-6.7-6.7l1.53-1.53c0.2-0.2,0.31-0.48,0.28-0.77
				c-0.02-0.28-0.17-0.55-0.4-0.72l-6.33-4.67c-1.94-1.43-4.59-1.23-6.29,0.47l-1.86,1.86c-0.38,0.38-0.38,1,0,1.39
				c0.38,0.38,1,0.38,1.39,0l1.86-1.86c1.01-1.01,2.59-1.13,3.74-0.28l2.11,1.55L4.08,20.38l-1.55-2.1
				c-0.85-1.16-0.73-2.73,0.28-3.75L9.9,7.44c0.38-0.38,0.38-1,0-1.39c-0.38-0.38-1-0.38-1.39,0l-7.09,7.09
				c-1.7,1.7-1.9,4.35-0.47,6.29l4.67,6.33c0.17,0.23,0.43,0.37,0.72,0.4c0.02,0,0.05,0,0.07,0c0.26,0,0.51-0.1,0.69-0.29l1.53-1.53
				l1.14,1.14c-2.4,2.07-3.81,5.09-3.81,8.29c0,5.25,3.75,9.74,8.84,10.73c0.55,2.93,2.64,5.33,5.4,6.32v3.52
				c0,1.61,1.31,2.92,2.92,2.92c1.27,0,2.35-0.81,2.75-1.94h1.4c0.4,1.13,1.48,1.94,2.75,1.94c1.27,0,2.35-0.81,2.75-1.94h1.4
				c0.4,1.13,1.48,1.94,2.75,1.94c1.27,0,2.35-0.81,2.75-1.94h1.4c0.4,1.13,1.48,1.94,2.75,1.94c1.61,0,2.92-1.31,2.92-2.92v-7.7
				c1.54-0.21,2.92-0.92,3.98-1.95c1.96-0.12,3.84-0.77,5.47-1.88c0.45-0.3,0.56-0.91,0.26-1.36c-0.3-0.45-0.91-0.56-1.36-0.26
				c-0.86,0.59-1.81,1.02-2.81,1.27c0.32-0.71,0.52-1.47,0.59-2.28c2.53-1.11,4.19-3.61,4.19-6.42c0-2.18-1-4.19-2.67-5.51
				l1.39-1.39c2.04,1.7,3.24,4.22,3.24,6.9c0,1.75-0.51,3.45-1.47,4.91c-0.3,0.45-0.17,1.06,0.28,1.36
				c0.17,0.11,0.35,0.16,0.54,0.16c0.32,0,0.63-0.16,0.82-0.44c1.17-1.78,1.79-3.85,1.79-5.99c0-3.2-1.41-6.22-3.81-8.29l1.14-1.14
				l1.53,1.53c0.18,0.18,0.43,0.29,0.69,0.29c0.02,0,0.05,0,0.07,0c0.29-0.02,0.55-0.17,0.72-0.4l4.67-6.33
				C67.39,17.49,67.19,14.85,65.49,13.14L65.49,13.14z M49.69,22.19c0-0.25,0.1-0.48,0.27-0.65l2.76-2.76l1.3,1.3l-2.76,2.76
				c-0.17,0.17-0.41,0.27-0.65,0.27c-0.25,0-0.48-0.1-0.65-0.27C49.78,22.67,49.69,22.44,49.69,22.19L49.69,22.19z M47.26,13.32
				l0.87,0.87l-2.76,2.76c-0.17,0.17-0.4,0.27-0.65,0.27c-0.25,0-0.48-0.1-0.65-0.27c-0.36-0.36-0.36-0.94,0-1.3l2.76-2.76
				L47.26,13.32z M43.95,10.01l1.49,1.49l-2.76,2.76c-1.12,1.12-1.12,2.95,0,4.07c0.54,0.54,1.27,0.84,2.04,0.84
				c0.77,0,1.49-0.3,2.04-0.84l2.76-2.76l1.81,1.81l-2.76,2.76c-0.54,0.54-0.84,1.27-0.84,2.04s0.3,1.49,0.84,2.04
				c0.54,0.54,1.27,0.84,2.04,0.84c0.77,0,1.49-0.3,2.04-0.84l2.76-2.76l1.49,1.49l-6.29,6.29L37.66,16.31L43.95,10.01z
				 M39.83,46.71h1.06v6.65h-1.06V46.71z M33.1,44.75l5.52-5.42c0,0.08-0.01,0.17-0.01,0.25c0,2.03,0.86,3.87,2.23,5.17H33.1z
				 M26.02,50.75c0.37-0.14,0.72-0.31,1.06-0.5v3.12h-1.06V50.75z M32.92,46.71h1.06v6.65h-1.06V46.71z M31.32,43.76
				c0.03-0.26,0.04-0.53,0.04-0.8c0-4.61-3.75-8.36-8.36-8.36c-0.18,0-0.36,0.01-0.54,0.02l5.46-5.34c0.2,2.87,2.61,5.15,5.53,5.15
				c3.06,0,5.55-2.49,5.55-5.55c0-0.13-0.01-0.26-0.01-0.39l5.62,4.05c-1.51,0.24-2.86,0.96-3.9,2l0-0.01L31.32,43.76z M13.95,29.67
				l1.5,1.5l1.84,5.7c-0.58,0.54-1.07,1.16-1.48,1.84c-2.27-0.5-3.97-2.56-3.97-4.94C11.84,32.13,12.63,30.61,13.95,29.67
				L13.95,29.67z M33.46,25.3c1.98,0,3.59,1.61,3.59,3.59c0,1.98-1.61,3.59-3.59,3.59c-1.98,0-3.59-1.61-3.59-3.59
				C29.87,26.91,31.48,25.3,33.46,25.3L33.46,25.3z M48.77,33.13c0,0-11.85-8.57-11.98-8.68c-0.93-0.7-2.08-1.11-3.33-1.11
				c-1.44,0-2.76,0.55-3.75,1.46L18.87,35.4l-1.44-4.48l13.63-13.63h4.82l13.63,13.63L48.77,33.13
				C48.77,33.13,48.77,33.13,48.77,33.13L48.77,33.13z M14.19,18.78l2.76,2.76c0.17,0.17,0.27,0.4,0.27,0.65
				c0,0.25-0.1,0.48-0.27,0.65c-0.17,0.17-0.41,0.27-0.65,0.27c-0.25,0-0.48-0.1-0.65-0.27l-2.76-2.76L14.19,18.78z M6.52,23.68
				l-1.26-1.71L21.97,5.26l1.71,1.26L6.52,23.68z M11.51,21.47l2.76,2.76c0.54,0.54,1.27,0.84,2.04,0.84c0.77,0,1.49-0.3,2.04-0.84
				c0.54-0.54,0.84-1.27,0.84-2.04s-0.3-1.49-0.84-2.04l-2.76-2.76l0.02-0.02l1.79-1.79l2.76,2.76c0.54,0.54,1.27,0.84,2.04,0.84
				c0.77,0,1.49-0.3,2.04-0.84c1.12-1.12,1.12-2.95,0-4.07l-2.76-2.76l1.49-1.49l6.29,6.29L16.31,29.26l-6.29-6.29L11.51,21.47z
				 M20.08,12.89l2.76,2.76c0.36,0.36,0.36,0.94,0,1.3c-0.17,0.17-0.4,0.27-0.65,0.27c-0.25,0-0.48-0.1-0.65-0.27l-2.76-2.76
				L20.08,12.89z M7.91,33.78c0-2.67,1.2-5.2,3.24-6.9l1.39,1.39c-1.67,1.32-2.67,3.33-2.67,5.51c0,1.76,0.66,3.44,1.85,4.74
				c0.89,0.97,2.03,1.67,3.28,2.02c-0.19,0.62-0.31,1.27-0.34,1.94C10.74,41.47,7.91,37.91,7.91,33.78L7.91,33.78z M16.6,42.96
				c0-3.53,2.87-6.4,6.4-6.4c3.53,0,6.4,2.87,6.4,6.4c0,3.53-2.87,6.4-6.4,6.4C19.47,49.36,16.6,46.49,16.6,42.96L16.6,42.96z
				 M23.1,55.31c-0.53,0-0.96-0.43-0.96-0.96v-3.07c0.28,0.03,0.57,0.04,0.85,0.04c0.36,0,0.72-0.03,1.06-0.07v3.1
				C24.06,54.88,23.63,55.31,23.1,55.31L23.1,55.31z M30.01,55.31c-0.53,0-0.96-0.43-0.96-0.96v-5.62l1.92-1.88v7.5
				C30.97,54.88,30.53,55.31,30.01,55.31L30.01,55.31z M36.91,55.31c-0.53,0-0.96-0.43-0.96-0.96v-7.63h1.92v7.63
				C37.87,54.88,37.44,55.31,36.91,55.31L36.91,55.31z M43.81,55.31c-0.53,0-0.96-0.43-0.96-0.96v-7.63h1.92v7.63
				C44.77,54.88,44.34,55.31,43.81,55.31L43.81,55.31z M45.75,44.75c-2.85,0-5.17-2.32-5.17-5.17c0-2.85,2.32-5.17,5.17-5.17
				c2.85,0,5.17,2.32,5.17,5.17C50.92,42.43,48.6,44.75,45.75,44.75L45.75,44.75z M55.08,33.78c0,1.77-0.91,3.37-2.37,4.28
				c-0.33-1.5-1.13-2.82-2.24-3.81l0.99-3.08l1.5-1.5C54.28,30.61,55.08,32.13,55.08,33.78L55.08,33.78z M60.39,23.68L43.23,6.52
				l1.71-1.26l16.71,16.71L60.39,23.68z M64.38,18.27l-1.55,2.11L46.54,4.08l2.11-1.55c1.15-0.85,2.73-0.73,3.74,0.28L64.1,14.53
				C65.12,15.54,65.23,17.12,64.38,18.27L64.38,18.27z M64.38,18.27"/>
		</g>
		<path class="st1" d="M25.96,42.96c0-1.63-1.33-2.96-2.96-2.96c-1.63,0-2.96,1.33-2.96,2.96c0,1.63,1.33,2.96,2.96,2.96
			C24.63,45.92,25.96,44.59,25.96,42.96L25.96,42.96z M22,42.96c0-0.55,0.45-1,1-1c0.55,0,1,0.45,1,1c0,0.55-0.45,1-1,1
			C22.45,43.96,22,43.51,22,42.96L22,42.96z M22,42.96"/>
		<path class="st1" d="M45.75,36.62c-1.63,0-2.96,1.33-2.96,2.96c0,1.63,1.33,2.96,2.96,2.96c1.63,0,2.96-1.33,2.96-2.96
			C48.71,37.95,47.38,36.62,45.75,36.62L45.75,36.62z M45.75,40.58c-0.55,0-1-0.45-1-1c0-0.55,0.45-1,1-1c0.55,0,1,0.45,1,1
			C46.75,40.13,46.3,40.58,45.75,40.58L45.75,40.58z M45.75,40.58"/>
	</g>
</g>
</svg>
