<?xml version="1.0" encoding="utf-8"?>
<!-- Generator: Adobe Illustrator 24.3.0, SVG Export Plug-In . SVG Version: 6.00 Build 0)  -->
<svg version="1.1" xmlns="http://www.w3.org/2000/svg" xmlns:xlink="http://www.w3.org/1999/xlink" x="0px" y="0px"
	 viewBox="0 0 14.29 12.61" style="enable-background:new 0 0 14.29 12.61;" xml:space="preserve">
<style type="text/css">
	.st0{fill:#808080;}
	.st1{fill:#5B5B5B;}
</style>
<g id="Layer_2">
</g>
<g id="Layer_1">
	<g>
		<path class="st0" d="M13.85,8.13L9.63,1.38C9.09,0.52,8.16,0,7.14,0S5.2,0.52,4.66,1.38L0.44,8.13C0.15,8.6,0,9.13,0,9.68
			c0,1.62,1.31,2.93,2.93,2.93h8.43c1.62,0,2.93-1.31,2.93-2.93C14.29,9.13,14.14,8.6,13.85,8.13L13.85,8.13z M11.36,11.78H2.93
			c-1.15,0-2.09-0.94-2.09-2.09c0-0.39,0.11-0.78,0.32-1.11l4.21-6.75c0.39-0.62,1.05-0.99,1.78-0.99s1.39,0.37,1.78,0.99l4.21,6.75
			c0.21,0.33,0.32,0.71,0.32,1.11C13.45,10.84,12.51,11.78,11.36,11.78L11.36,11.78z M11.36,11.78"/>
		<path class="st0" d="M8.21,2.27C7.98,1.9,7.58,1.67,7.14,1.67c-0.44,0-0.84,0.22-1.07,0.59L1.86,9.02
			c-0.12,0.2-0.19,0.43-0.19,0.66c0,0.69,0.56,1.26,1.26,1.26h8.43c0.69,0,1.26-0.56,1.26-1.26c0-0.24-0.07-0.46-0.19-0.66
			L8.21,2.27z M7.56,9.24H6.73V8.4h0.84V9.24z M7.56,7.56H6.73V4.6h0.84V7.56z M7.56,7.56"/>
	</g>
</g>
</svg>
