<?xml version="1.0" encoding="utf-8"?>
<!-- Generator: Adobe Illustrator 24.3.0, SVG Export Plug-In . SVG Version: 6.00 Build 0)  -->
<svg version="1.1" xmlns="http://www.w3.org/2000/svg" xmlns:xlink="http://www.w3.org/1999/xlink" x="0px" y="0px"
	 viewBox="0 0 15.98 10.46" style="enable-background:new 0 0 15.98 10.46;" xml:space="preserve">
<style type="text/css">
	.st0{fill:#808080;}
	.st1{fill:#5B5B5B;}
</style>
<g id="Layer_2">
</g>
<g id="Layer_1">
	<g>
		<path class="st0" d="M14.99,3.34c-0.01-0.01-0.02-0.02-0.03-0.04l-0.56-0.54c0.46-0.11,0.96-0.5,0.96-0.89
			c0-0.47-0.64-0.63-1.2-0.63c-0.57,0-0.64,0.39-0.65,0.67l-1.44-1.39C11.78,0.23,11.22,0,10.8,0H5.17C4.76,0,4.2,0.23,3.91,0.52
			L2.46,1.91C2.46,1.63,2.39,1.24,1.82,1.24c-0.55,0-1.2,0.16-1.2,0.63c0,0.4,0.5,0.79,0.96,0.89L1.02,3.3
			C1.01,3.31,1,3.33,0.99,3.34C0.39,3.85,0,4.8,0,5.49v2.05c0,0.5,0.2,0.95,0.51,1.28v0.79c0,0.47,0.39,0.84,0.87,0.84h1.05
			c0.48,0,0.87-0.38,0.87-0.84v-0.2h9.39v0.2c0,0.47,0.39,0.84,0.87,0.84h1.05c0.48,0,0.87-0.38,0.87-0.84V8.82
			c0.32-0.34,0.51-0.79,0.51-1.28V5.49C15.98,4.8,15.59,3.85,14.99,3.34L14.99,3.34z M4.44,1.14c0.2-0.17,0.56-0.3,0.74-0.3h5.63
			c0.18,0,0.53,0.13,0.74,0.3l1.89,1.84H2.54L4.44,1.14z M0.65,5.18c0-0.5,0.39-0.91,0.88-0.91c0.49,0,2.08,0.93,2.08,1.44
			c0,0.5-1.59,0.39-2.08,0.39C1.04,6.09,0.65,5.68,0.65,5.18L0.65,5.18z M3.29,8.51H2.96l-1,0C1.69,8.43,1.49,8.33,1.35,8.22
			C1.28,8.17,1.23,8.11,1.19,8.05C1.14,8,1.11,7.94,1.1,7.88C0.97,7.53,1.23,7.21,1.23,7.21h1.7l1.13,1.3H3.29z M10.43,8.52H5.54
			c-0.51,0-0.92-0.41-0.92-0.92h6.74C11.36,8.1,10.94,8.52,10.43,8.52L10.43,8.52z M10.65,6.96H5.33c-0.55,0-1-0.68-1-1.53h7.33
			C11.65,6.28,11.2,6.96,10.65,6.96L10.65,6.96z M14.88,7.88C14.86,7.94,14.83,8,14.79,8.05c-0.04,0.06-0.1,0.11-0.17,0.17
			c-0.14,0.11-0.33,0.21-0.61,0.29l-1,0h-1.1l1.13-1.3h1.7C14.75,7.21,15.01,7.53,14.88,7.88L14.88,7.88z M14.45,6.09
			c-0.49,0-2.08,0.12-2.08-0.39c0-0.5,1.59-1.44,2.08-1.44c0.49,0,0.88,0.41,0.88,0.91C15.33,5.68,14.93,6.09,14.45,6.09L14.45,6.09
			z M14.45,6.09"/>
	</g>
</g>
</svg>
