<?xml version="1.0" encoding="utf-8"?>
<!-- Generator: Adobe Illustrator 24.3.0, SVG Export Plug-In . SVG Version: 6.00 Build 0)  -->
<svg version="1.1" xmlns="http://www.w3.org/2000/svg" xmlns:xlink="http://www.w3.org/1999/xlink" x="0px" y="0px"
	 viewBox="0 0 37.79 54" style="enable-background:new 0 0 37.79 54;" xml:space="preserve">
<style type="text/css">
	.st0{fill:#808080;}
	.st1{fill:#5B5B5B;}
</style>
<g id="Layer_2">
</g>
<g id="Layer_1">
	<g>
		<path class="st1" d="M18.88,47.28c-0.38,0-0.75-0.18-0.98-0.48L4.73,29.93c-0.02-0.03-0.04-0.06-0.06-0.09
			c-2.64-3.25-4.09-7.34-4.09-11.54C0.58,8.21,8.79,0,18.88,0s18.31,8.21,18.31,18.31c0,4.18-1.45,8.27-4.08,11.52
			c0,0.01-0.01,0.01-0.01,0.02L19.86,46.8C19.63,47.1,19.26,47.28,18.88,47.28z M6.78,28.51l12.1,15.5L31.1,28.35
			c0.01-0.02,0.03-0.04,0.05-0.06c2.29-2.81,3.55-6.35,3.55-9.98c0-8.72-7.1-15.82-15.82-15.82S3.06,9.58,3.06,18.31
			c0,3.67,1.28,7.24,3.62,10.07C6.72,28.42,6.75,28.47,6.78,28.51z"/>
		<path class="st1" d="M18.88,29.78c-2.99,0-5.8-1.16-7.92-3.28s-3.28-4.93-3.28-7.92s1.16-5.8,3.28-7.92
			c2.91-2.91,7.16-3.99,11.11-2.82c0.66,0.19,1.03,0.89,0.84,1.55c-0.19,0.66-0.89,1.04-1.55,0.84c-3.07-0.91-6.38-0.07-8.64,2.19
			c-1.65,1.65-2.55,3.83-2.55,6.16s0.91,4.51,2.55,6.16c1.65,1.65,3.83,2.55,6.16,2.55s4.51-0.91,6.16-2.55
			c2.26-2.26,3.1-5.57,2.19-8.63c-0.19-0.66,0.18-1.35,0.84-1.55c0.66-0.19,1.35,0.18,1.55,0.84c1.16,3.94,0.08,8.19-2.82,11.1
			C24.68,28.61,21.87,29.78,18.88,29.78z"/>
		<path class="st1" d="M25.94,12.81c-0.32,0-0.64-0.12-0.88-0.36l-0.02-0.02c-0.49-0.49-0.49-1.27,0-1.76
			c0.49-0.49,1.27-0.49,1.76,0l0.02,0.02c0.49,0.49,0.49,1.27,0,1.76C26.58,12.68,26.26,12.81,25.94,12.81z"/>
		<path class="st1" d="M8.27,43.43c-0.55,0-1.05-0.36-1.2-0.92c-0.18-0.66,0.21-1.35,0.87-1.53c0.03-0.01,0.06-0.01,0.09-0.02
			c0.67-0.13,1.33,0.3,1.46,0.98c0.13,0.66-0.28,1.3-0.93,1.45C8.46,43.42,8.36,43.43,8.27,43.43z"/>
		<path class="st1" d="M18.9,54C9.51,54,0,51.55,0,46.88c0-1.18,0.65-2.91,3.75-4.42c0.62-0.3,1.36-0.05,1.66,0.57
			s0.05,1.36-0.57,1.66c-1.47,0.72-2.35,1.54-2.35,2.19c0,0.71,1.13,1.91,4.32,2.98c3.21,1.07,7.5,1.66,12.09,1.66
			s8.88-0.59,12.09-1.66c3.19-1.06,4.32-2.27,4.32-2.98c0-1.47-4.33-3.85-12.45-4.48c-0.69-0.05-1.2-0.65-1.14-1.34
			c0.05-0.69,0.65-1.2,1.34-1.14c6.8,0.53,14.75,2.68,14.75,6.96C37.79,51.55,28.29,54,18.9,54z"/>
	</g>
</g>
</svg>
