<svg width="89" height="69" viewBox="0 0 89 69" fill="none" xmlns="http://www.w3.org/2000/svg">
    <path d="M50.1666 67.2346C53.2196 66.506 56.1223 65.3612 58.863 63.8347C61.0372 62.6204 63.0725 61.1864 64.8997 59.5095C66.2759 58.249 67.6058 56.9191 68.7738 55.4389C70.1037 53.762 71.2948 51.9811 72.3009 50.0961C73.6655 47.5288 74.7063 44.8343 75.3886 42.001C75.724 40.6132 75.9322 39.2024 76.1172 37.7799C76.2444 36.8317 76.1519 35.8834 76.3138 34.9351C76.4063 34.3569 76.4526 33.7093 76.2907 33.1542C76.1288 32.5528 76.3485 32.5759 76.7764 32.5759C78.0947 32.5644 79.4015 32.6685 80.7083 32.7957C82.5123 32.9691 84.2586 33.3508 85.9932 33.8596C86.9878 34.1487 87.9245 34.5766 89 35.0276C88.8728 34.8426 88.8381 34.7848 88.7918 34.7269C87.2538 33.0154 85.3341 31.8821 83.2178 31.0957C81.113 30.3209 78.9505 29.812 76.6954 29.6848C76.4294 29.6733 76.0362 29.7542 75.9437 29.176C75.6546 27.3835 75.2846 25.6026 74.7295 23.8795C73.9893 21.6128 73.0642 19.4387 71.8962 17.3571C70.6703 15.183 69.2479 13.1477 67.5595 11.3205C65.501 9.10011 63.2575 7.09946 60.6902 5.44575C58.6086 4.11583 56.4345 2.99408 54.1448 2.12675C51.0917 0.970304 47.9231 0.264873 44.6735 0.0682771C42.8463 -0.035803 40.996 -0.0242385 39.1572 0.126099C37.3879 0.276437 35.6416 0.565548 33.9301 0.993433C30.8308 1.76825 27.8819 2.93626 25.118 4.56685C22.1806 6.30152 19.5208 8.40624 17.2079 10.9273C16.0283 12.2109 14.9413 13.564 13.9583 14.998C12.3508 17.3571 11.0672 19.8897 10.0958 22.5727C9.94543 22.989 9.73727 23.4053 9.7604 23.8795C10.0032 23.3938 10.1767 22.8849 10.408 22.3992C11.6801 19.6931 13.2644 17.1952 15.2766 14.9864C16.9072 13.1939 18.6882 11.5633 20.6888 10.1987C22.5044 8.96134 24.3894 7.85115 26.4132 6.98382C27.9397 6.32464 29.5009 5.76955 31.1199 5.35323C32.7621 4.93691 34.4158 4.6478 36.0926 4.39338C37.4804 4.18522 38.8681 4.17366 40.2327 4.15053C41.2504 4.1274 42.3143 4.15053 43.3551 4.2893C44.3844 4.43964 45.4252 4.49746 46.4428 4.69406C48.4088 5.06412 50.34 5.57296 52.2135 6.28995C54.3298 7.09946 56.3767 8.07088 58.2848 9.30827C59.8229 10.3028 61.28 11.3783 62.6562 12.6041C64.2868 14.0497 65.6976 15.6687 66.9813 17.415C68.4731 19.4272 69.6411 21.6244 70.5431 23.9604C71.2139 25.6835 71.7227 27.4645 72.035 29.2916C72.0696 29.4651 72.035 29.5808 71.8037 29.5808C70.5084 29.5923 69.2364 29.7542 67.9527 29.9277C66.8541 30.078 65.7439 30.2168 64.6684 30.4365C62.8065 30.8181 60.9331 31.2229 59.1059 31.7664C57.5216 32.2406 55.9025 32.6338 54.3645 33.2814C54.1332 33.8249 54.0522 34.4031 53.9944 34.9813C53.9482 35.4555 53.7863 35.7099 53.2196 35.6752C52.2829 35.6174 51.3346 35.6405 50.3979 35.6637C49.9006 35.6752 49.5421 35.6521 49.7503 35.016C49.704 34.9929 49.6577 34.9929 49.6231 34.9929C49.5999 34.9929 49.5652 34.9929 49.5421 35.0045C49.5074 35.016 49.4727 35.0276 49.438 35.0392C49.3802 35.0623 49.3224 35.097 49.2646 35.1201C48.5938 35.3861 47.9231 35.6752 47.2408 35.9181C45.3558 36.5888 43.4361 37.0976 41.447 37.4446C39.828 37.7221 38.1974 37.9303 36.5552 37.9881C34.7165 38.0575 32.8893 37.8725 31.0621 37.5487C28.4139 37.0745 25.9738 36.1031 23.6493 34.7848C23.4296 35.0276 23.6493 35.5018 23.3949 35.6058C23.0826 35.733 22.6779 35.6521 22.3194 35.6521C21.5099 35.6521 20.7119 35.6521 19.9024 35.6521C19.2779 35.6521 19.197 35.5827 19.3126 34.9582C19.463 34.0793 19.648 33.212 19.833 32.3447C19.8677 32.1943 19.8909 32.044 19.8562 31.8936C19.0813 31.2229 18.4106 30.4597 17.7746 29.6617C17.3929 29.1876 17.0229 28.7019 16.6528 28.2161C16.41 27.9039 16.1902 27.8345 15.8549 27.8345C10.5699 27.8345 5.28495 27.8345 0 27.8345C0 27.9155 0 27.9849 0 28.0658C1.16801 29.4535 2.35915 30.8066 3.68906 32.0555C4.79925 33.0848 5.99038 34.0099 7.21622 34.8888C9.64475 36.6466 12.2583 38.0344 15.0338 39.1446C16.8378 39.8731 18.6766 40.486 20.5847 40.8908C21.6949 40.301 22.8629 39.9656 24.1234 39.9772C24.6438 39.9772 25.1411 40.116 25.6384 40.2085C25.9622 40.2663 25.9853 40.4166 25.8697 40.6942C25.7309 41.0411 25.6384 41.4112 25.5227 41.7697C26.1357 41.8506 26.7601 41.92 27.3731 42.001C27.6275 41.5268 27.639 40.9833 27.7316 40.4629C27.7778 40.1738 27.8472 40.0813 28.1479 40.0813C29.7206 40.0928 31.305 40.0928 32.8777 40.0813C33.19 40.0813 33.3519 40.1275 33.2478 40.4976C33.1668 40.7867 33.1553 41.0989 33.109 41.3996C33.0628 41.7119 32.8546 41.7697 32.5655 41.7581C31.6635 41.7466 30.7614 41.7581 29.8594 41.7581C29.6166 41.7581 29.3621 41.7466 29.4547 42.1166C30.3451 42.1629 31.224 42.1513 32.1145 42.1166C32.5539 42.1051 33.0049 42.0819 33.4444 42.0588C33.8838 42.0357 34.3349 42.0125 34.7743 42.001C34.8668 41.5037 34.9593 40.9949 35.0287 40.486C35.0634 40.2432 35.2484 40.1391 35.4219 40.1275C36.9137 39.9656 38.4171 39.769 39.8511 40.4282C40.2327 40.6017 40.4756 40.9139 40.7762 41.1915C40.8803 41.1915 40.996 41.1915 41.1001 41.1799C41.3892 41.1452 41.6667 41.0758 41.9558 41.0064C42.1871 40.9486 42.4184 40.9023 42.6613 40.8792C42.7769 39.8384 43.6558 40.0813 44.2571 40.0003C44.9626 39.9078 45.7027 39.8962 46.4197 40.0581C46.4313 40.0234 46.466 39.9888 46.4891 39.9772C46.5122 39.9656 46.5585 39.9541 46.5932 39.9425C47.7034 39.6187 48.8482 39.3874 49.9122 38.9364C53.1271 37.5718 56.3883 36.3344 59.7419 35.3398C61.1875 34.9004 62.6562 34.5303 64.1249 34.1718C65.7786 33.7671 67.4554 33.4664 69.1438 33.1773C70.0921 33.0154 71.052 32.9229 72.0003 32.8072C72.2315 32.7841 72.4281 32.761 72.4397 33.1426C72.486 35.1317 72.4166 37.1092 72.0581 39.0636C71.6649 41.1799 71.0173 43.2152 70.1615 45.2043C68.7738 48.4424 66.8309 51.2988 64.4487 53.8661C63.4079 54.9878 62.263 55.9824 61.0603 56.9307C59.3372 58.2722 57.51 59.4633 55.5672 60.4231C53.7747 61.3136 51.9244 62.0422 49.9931 62.6088C47.5761 63.3143 45.136 63.7884 42.6381 63.9387C40.7878 64.0428 38.9259 64.0544 37.0641 63.8693C35.5029 63.719 33.9648 63.4877 32.4383 63.1523C29.1887 62.4238 26.101 61.2442 23.2214 59.5789C20.099 57.7749 17.3351 55.5314 14.976 52.7906C13.4495 51.0212 12.1311 49.1015 11.0556 47.0315C10.593 46.141 10.1883 45.2159 9.77196 44.2213C9.71414 44.4179 9.73727 44.4873 9.77196 44.5914C10.408 46.6383 11.2753 48.5811 12.3046 50.443C12.9175 51.5532 13.5304 52.6865 14.3052 53.6926C15.612 55.4042 16.9535 57.081 18.5378 58.5728C20.0528 59.9953 21.614 61.3252 23.3371 62.47C25.9275 64.2047 28.7145 65.5693 31.6866 66.5176C33.7566 67.1768 35.8729 67.6509 38.0355 67.94C38.4865 67.9979 38.9722 67.8706 39.4001 68.1366C41.2504 68.1366 43.1007 68.1366 44.9394 68.1366C45.3789 67.8706 45.8877 67.9979 46.3619 67.9285C47.634 67.755 48.9061 67.5353 50.1666 67.2346Z"
          fill="#fff"/>
    <path d="M50.4326 35.6752C51.3693 35.6405 52.3176 35.629 53.2543 35.6868C53.821 35.7215 53.9829 35.4671 54.0291 34.9929C54.0869 34.4147 54.1795 33.8365 54.3992 33.2929C54.3992 33.2351 54.3876 33.1773 54.3992 33.1195C54.6652 31.7664 54.9543 30.4134 55.174 29.0488C55.2434 28.644 55.2665 28.3087 55.7869 28.4243C56.6774 28.6093 57.5447 28.5168 58.4467 28.4474C59.927 28.3318 61.3147 27.9617 62.6099 27.2679C64.148 26.4352 65.2582 25.1978 65.8249 23.521C66.2065 22.3877 66.4031 21.2428 66.1834 20.0401C65.9521 18.7449 65.3507 17.6925 64.3099 16.8946C62.8644 15.7844 61.1413 15.5299 59.395 15.4143C58.412 15.3449 57.4175 15.4143 56.423 15.4953C55.4978 15.5762 54.5958 15.6803 53.6822 15.8538C53.5087 15.8884 53.3931 15.9347 53.3584 16.1082C53.1271 17.334 52.8958 18.5714 52.6645 19.7972C52.3407 21.555 52.0169 23.3244 51.6815 25.0822C51.4387 26.3427 51.1727 27.6032 50.9298 28.8753C50.7332 29.9046 50.5367 30.9222 50.3516 31.9515C50.155 32.9807 49.97 34.0099 49.7734 35.0276C49.5768 35.6637 49.9353 35.6983 50.4326 35.6752ZM56.9202 19.6816C57.0012 19.2074 57.1746 18.8721 57.6604 18.8721C58.5046 18.8721 59.3603 18.7911 60.2045 19.0455C61.7079 19.485 62.1127 20.838 61.8467 22.0754C61.4072 24.0761 59.7073 24.9897 57.8916 25.0822C57.244 25.1169 56.5964 25.14 55.9604 24.9203C56.2842 23.1625 56.6311 21.4278 56.9202 19.6816Z"
          fill="#1F1A17"/>
    <path d="M34.1845 32.3562C34.0804 33.0154 33.9417 33.6746 33.7798 34.3222C33.456 35.5711 33.4444 35.5943 34.6702 35.8718C36.1967 36.2303 37.7001 36.0568 39.1341 35.4208C40.8572 34.646 42.0252 33.2467 43.0892 31.7549C44.6619 29.5461 45.8068 27.0944 47.0789 24.7121C48.5129 22.0407 49.8775 19.3231 51.2537 16.617C51.4387 16.2469 51.7625 15.9463 51.8203 15.4953C50.2707 15.4953 48.7442 15.5068 47.2292 15.4837C46.917 15.4837 46.7898 15.5762 46.6741 15.8769C46.3041 16.8252 45.8878 17.7619 45.483 18.6986C44.847 20.202 44.1993 21.6938 43.5633 23.2087C43.0892 24.3536 42.6266 25.4985 42.164 26.6549C41.898 25.8917 41.7708 25.1053 41.5858 24.3421C40.9035 21.5203 40.2096 18.7102 39.5273 15.8884C39.4695 15.6687 39.4117 15.4837 39.0994 15.4837C37.6423 15.4953 36.1736 15.4953 34.7049 15.4953C34.8784 16.5014 35.26 17.415 35.5491 18.3517C36.5784 21.7632 37.5729 25.1863 38.7756 28.5284C39.3654 30.1705 38.1049 31.5467 36.9947 32.0093C36.1967 32.3447 35.4104 32.2406 34.6124 32.1018C34.3233 32.0671 34.2308 32.0671 34.1845 32.3562Z"
          fill="#1F1A17"/>
    <path d="M19.8562 32.3562C19.6711 33.2236 19.4977 34.1025 19.3358 34.9698C19.2201 35.5943 19.3011 35.6637 19.9255 35.6637C20.7351 35.6637 21.533 35.6637 22.3425 35.6637C22.701 35.6637 23.1058 35.7446 23.418 35.6174C23.684 35.5133 23.4643 35.0392 23.6724 34.7963C23.603 34.5882 23.7534 34.4378 23.7881 34.2528C24.1697 32.1249 24.5398 29.9855 24.9445 27.8576C25.4649 25.1516 26.0316 22.4455 26.5288 19.7278C26.6098 19.3115 26.7486 19.3 27.0492 19.3115C29.0152 19.3231 30.9696 19.2768 32.9356 19.3347C33.5369 19.3462 33.641 19.0918 33.7104 18.6177C33.8723 17.5884 34.0689 16.5707 34.2655 15.5068C34.0573 15.5068 33.8723 15.5068 33.6872 15.5068C30.322 15.5068 26.9567 15.5184 23.5915 15.4837C23.0942 15.4837 22.8976 15.6572 22.8745 16.0619C22.8514 16.5361 22.7126 16.9871 22.6316 17.4496C22.2384 19.5775 21.8915 21.7169 21.4521 23.8448C21.082 25.6026 20.7813 27.3604 20.4344 29.1182C20.3419 29.5808 20.2494 30.0549 20.1453 30.5175C20.0412 30.9801 19.9487 31.4426 19.8562 31.9168C19.9024 32.0671 19.8793 32.2059 19.8562 32.3562Z"
          fill="#1F1A17"/>
    <path d="M51.589 49.5526C51.7972 49.5526 51.8319 49.4369 51.9128 49.3213C52.6298 48.292 53.3352 47.2628 54.0638 46.2567C54.7924 45.2506 55.4168 44.1751 56.0876 43.1227C55.9141 44.1982 55.6944 45.2506 55.4862 46.3029C55.2781 47.3669 55.0699 48.4424 54.8617 49.5179C55.5209 49.5179 56.157 49.6219 56.7236 49.46C56.9087 49.4138 56.9087 48.6852 56.9896 48.2689C57.244 46.9852 57.4984 45.7016 57.7413 44.4179C58.0073 42.9839 58.2617 41.55 58.5392 40.0813C57.8801 40.0813 57.2325 40.0928 56.5849 40.0813C56.3536 40.0813 56.2379 40.2316 56.1454 40.3935C55.3243 41.6193 54.5148 42.8452 53.6937 44.071C53.0693 45.0077 52.4332 45.9444 51.8087 46.8812C52.2829 44.6261 52.6992 42.3826 53.1271 40.0928C52.5604 40.0928 52.0053 40.0928 51.4502 40.0928C51.2768 40.0928 51.1958 40.1275 51.1611 40.3357C50.9877 41.4112 50.7911 42.4751 50.5945 43.539C50.2128 45.5281 49.8312 47.5288 49.438 49.5641C50.1781 49.5526 50.8836 49.541 51.589 49.5526Z"
          fill="#1F1A17"/>
    <path d="M41.713 46.037C41.5164 47.1009 41.3198 48.1648 41.1232 49.2288C41.1001 49.3675 41.0654 49.5294 41.3082 49.5526C42.8463 49.7029 44.3728 49.7838 45.8877 49.4138C47.3911 49.0322 48.27 47.9798 48.27 46.6961C48.27 45.7016 47.7728 45.0193 46.8707 44.5567C48.351 44.0247 48.8482 42.9146 48.7095 41.8506C48.6632 41.4574 48.4666 41.1221 48.2006 40.8561C47.7496 40.4051 47.0673 40.1275 46.3966 40.0928C45.6796 39.9309 44.9395 39.9425 44.234 40.035C43.6327 40.116 42.7538 39.8847 42.6381 40.9139C42.5919 41.2261 42.5456 41.55 42.4878 41.8622C42.2449 43.2499 41.979 44.6492 41.713 46.037ZM44.4653 41.92C44.5116 41.6193 44.6041 41.4227 44.9626 41.469C45.1361 41.4921 45.3095 41.469 45.483 41.469C46.119 41.4806 46.6047 41.8622 46.6626 42.371C46.732 42.9608 46.2694 43.62 45.7027 43.7819C45.2054 43.9207 44.6966 43.886 44.1531 43.8975C44.2572 43.1921 44.3612 42.5561 44.4653 41.92ZM43.7599 45.7016C43.7946 45.4472 43.864 45.3894 44.0953 45.4009C44.5231 45.424 44.9626 45.3662 45.3905 45.5166C46.2462 45.8288 46.4891 46.8696 45.8531 47.5288C45.1361 48.2689 44.234 48.2111 43.332 48.1417C43.4823 47.309 43.6558 46.5111 43.7599 45.7016Z"
          fill="#1F1A17"/>
    <path d="M26.0085 49.5063C26.0547 49.5179 26.0894 49.541 26.1241 49.541C27.7431 49.541 29.3506 49.541 30.9696 49.5526C31.4784 49.5526 31.9988 49.6451 31.9063 48.824C31.8832 48.6737 31.9179 48.4077 32.022 48.2342C32.2764 47.7716 31.9757 47.8179 31.6866 47.8179C30.7383 47.8179 29.8016 47.7832 28.8649 47.8295C28.3792 47.8526 28.3676 47.5982 28.4254 47.2744C28.5179 46.7771 28.6798 46.3029 28.7492 45.8057C28.7839 45.5397 28.8649 45.4934 29.0962 45.505C29.6513 45.5166 30.2063 45.5166 30.773 45.505C31.2125 45.505 31.756 45.6322 32.0682 45.424C32.3689 45.2159 32.2301 44.603 32.3805 44.2213C32.6002 43.6894 32.2879 43.7819 31.9988 43.7819C31.1546 43.7819 30.3104 43.7819 29.4547 43.7819C29.3043 43.7819 29.0499 43.8629 29.1193 43.5622C29.1655 43.3309 29.2234 43.088 29.2812 42.8567C29.339 42.6255 29.3968 42.3826 29.4547 42.1513C29.3621 41.7812 29.6166 41.7928 29.8594 41.7928C30.7614 41.7928 31.6635 41.7812 32.5655 41.7928C32.8546 41.7928 33.0628 41.735 33.109 41.4343C33.1553 41.1336 33.1668 40.8214 33.2478 40.5323C33.3519 40.1622 33.19 40.116 32.8777 40.116C31.305 40.1275 29.7206 40.1275 28.1479 40.116C27.8472 40.116 27.7894 40.2085 27.7316 40.4976C27.639 41.0064 27.6275 41.55 27.3731 42.0357C27.3731 42.7411 27.1418 43.4003 27.0146 44.0826C26.7023 45.8866 26.3554 47.6907 26.0085 49.5063Z"
          fill="#1F1A17"/>
    <path d="M33.3866 49.1478C33.3403 49.4022 33.375 49.5872 33.7335 49.5526C34.1498 49.5179 34.5777 49.541 35.0056 49.541C35.2137 49.541 35.3178 49.541 35.3641 49.2519C35.5144 48.292 35.7457 47.3553 35.9076 46.3955C35.9539 46.1526 35.9886 46.1526 36.2083 46.1757C37.5266 46.2683 38.8103 46.0717 39.8858 45.2621C40.2327 44.9962 40.5681 44.5914 40.7878 44.0941C41.1694 43.2731 41.2735 42.2207 40.7647 41.203C40.4756 40.937 40.2211 40.6132 39.8395 40.4398C38.394 39.7806 36.9022 39.9772 35.4103 40.1391C35.2484 40.1622 35.0518 40.2547 35.0171 40.4976C34.9478 41.0064 34.8437 41.5037 34.7627 42.0125C34.6008 42.8914 34.4389 43.7703 34.2655 44.6377C33.9763 46.1526 33.6757 47.656 33.3866 49.1478ZM36.3702 43.8975C36.5668 43.2037 36.6246 42.4751 36.7402 41.7581C36.7634 41.6078 36.8328 41.5153 36.9831 41.4806C37.8389 41.2146 38.8797 41.6425 39.03 42.371C39.215 43.2268 38.6599 44.3139 37.7232 44.4873C37.4688 44.5336 37.2144 44.5798 36.8675 44.5914C36.3702 44.6724 36.1967 44.5105 36.3702 43.8975Z"
          fill="#1F1A17"/>
    <path d="M61.3147 49.3328C62.4364 49.7954 63.5698 49.7029 64.7031 49.5179C65.1425 49.4485 65.6861 49.4716 65.5126 48.6158C65.316 47.6329 65.4316 47.6097 64.4602 47.8641C64.4487 47.8641 64.4255 47.8988 64.414 47.8988C63.5004 47.9798 62.6215 48.0145 61.8351 47.3669C60.7943 46.5111 60.8984 44.4873 61.6385 43.2962C62.6331 41.6772 64.3561 41.4112 65.9405 41.9085C66.3337 42.0357 66.3221 41.8044 66.3684 41.6425C66.5071 41.2146 66.8656 40.7058 66.7616 40.4051C66.6459 40.0697 65.9867 40.1507 65.5589 40.0697C64.1827 39.7922 62.8759 40.0697 61.7079 40.7289C59.8345 41.7697 59.0943 43.5275 59.0134 45.5975C59.0018 45.9791 59.0365 46.3492 59.129 46.7308C59.4181 47.9567 60.112 48.8356 61.3147 49.3328Z"
          fill="#1F1A17"/>
    <path d="M18.2718 46.1757C18.3528 47.4478 18.9541 48.5118 20.099 49.1247C21.5561 49.9111 23.1058 49.7723 24.6438 49.3328C24.7711 49.2981 24.8983 49.2634 24.8404 49.1247C24.6785 48.7777 24.7826 48.4077 24.7248 48.0607C24.6785 47.841 24.6092 47.6329 24.2275 47.7716C23.6956 47.9567 23.1173 47.9914 22.5391 47.9335C21.6487 47.841 20.9317 47.4825 20.5616 46.5921C19.9949 45.2159 20.5385 43.1227 21.8568 42.2785C22.9439 41.5731 24.1003 41.5384 25.2915 41.9316C25.3608 41.9547 25.4187 41.9778 25.4649 41.9778C25.4765 41.9778 25.4881 41.9778 25.4996 41.9663C25.5112 41.9663 25.5227 41.9547 25.5227 41.9431C25.5343 41.92 25.5459 41.8738 25.5459 41.7928C25.6615 41.4343 25.754 41.0643 25.8928 40.7173C26.0085 40.4398 25.9853 40.2894 25.6615 40.2316C25.1527 40.1391 24.667 40.0119 24.1466 40.0003C22.886 39.9888 21.718 40.3241 20.6079 40.9139C20.4228 41.0642 20.2262 41.2146 20.0528 41.3765C18.6303 42.6717 18.1446 44.337 18.2718 46.1757Z"
          fill="#1F1A17"/>
</svg>
