<?xml version="1.0" encoding="utf-8"?>
<!-- Generator: Adobe Illustrator 24.3.0, SVG Export Plug-In . SVG Version: 6.00 Build 0)  -->
<svg version="1.1" xmlns="http://www.w3.org/2000/svg" xmlns:xlink="http://www.w3.org/1999/xlink" x="0px" y="0px"
	 viewBox="0 0 54 54" style="enable-background:new 0 0 54 54;" xml:space="preserve">
<style type="text/css">
	.st0{fill:#808080;}
	.st1{fill:#5B5B5B;}
</style>
<g id="Layer_2">
</g>
<g id="Layer_1">
	<g>
		<path class="st1" d="M53.95,20.46c-0.01-0.05-0.03-0.1-0.05-0.15c-0.03-0.05-0.06-0.1-0.09-0.14c-0.03-0.05-0.07-0.1-0.12-0.14
			c-0.01-0.01-0.02-0.03-0.04-0.04L45,13.26V6.3c0-1.49-1.21-2.7-2.7-2.7h-9.75l-3.91-3.03c-0.96-0.75-2.32-0.75-3.28,0L21.45,3.6
			H11.7C10.21,3.6,9,4.81,9,6.3v6.97l-8.65,6.72C0.33,20,0.32,20.02,0.31,20.03c-0.04,0.04-0.09,0.09-0.12,0.14
			c-0.03,0.04-0.06,0.09-0.09,0.14c-0.02,0.05-0.04,0.1-0.05,0.15c-0.02,0.06-0.03,0.12-0.04,0.18C0.01,20.66,0,20.68,0,20.7v30.6
			c0,0.57,0.19,1.13,0.53,1.59c0.01,0.01,0.01,0.02,0.01,0.03c0.01,0.01,0.02,0.02,0.03,0.03C1.08,53.6,1.86,54,2.7,54h48.6
			c0.84,0,1.63-0.4,2.13-1.07c0.01-0.01,0.02-0.01,0.02-0.02c0.01-0.01,0.01-0.02,0.01-0.03C53.81,52.43,54,51.87,54,51.3V20.7
			c0-0.02-0.01-0.04-0.01-0.05C53.98,20.58,53.97,20.52,53.95,20.46z M26.46,1.98c0.31-0.25,0.76-0.25,1.07,0l2.08,1.61h-5.22
			L26.46,1.98z M9.9,23.4c0.5,0,0.9-0.4,0.9-0.9V6.3c0-0.5,0.4-0.9,0.9-0.9h30.6c0.5,0,0.9,0.4,0.9,0.9v16.2c0,0.5,0.4,0.9,0.9,0.9
			S45,23,45,22.5v-6.95l6.33,4.92L36.32,32.12c-0.26,0.2-0.39,0.52-0.35,0.84c0.04,0.32,0.25,0.59,0.56,0.72s0.64,0.07,0.9-0.13
			L52.2,22.07V50.8L28.64,32.5c-0.97-0.75-2.32-0.75-3.28,0L1.8,50.8V22.07l14.75,11.45c0.39,0.3,0.96,0.23,1.26-0.16
			s0.23-0.96-0.16-1.26L2.67,20.46L9,15.54v6.95C9,23,9.4,23.4,9.9,23.4z M51.07,52.2H2.92l23.53-18.28c0.31-0.25,0.76-0.25,1.07,0
			L51.07,52.2z"/>
		<path class="st1" d="M27,28.8c0.5,0,0.9-0.4,0.9-0.9c0-0.5-0.4-0.9-0.9-0.9c-4.97,0-9-4.03-9-9s4.03-9,9-9s9,4.03,9,9v3.6
			c0,0.99-0.81,1.8-1.8,1.8c-0.99,0-1.8-0.81-1.8-1.8V18c0-0.5-0.4-0.9-0.9-0.9c-0.5,0-0.9,0.4-0.9,0.9c0,1.99-1.61,3.6-3.6,3.6
			c-1.99,0-3.6-1.61-3.6-3.6s1.61-3.6,3.6-3.6c0.5,0,0.9-0.4,0.9-0.9c0-0.5-0.4-0.9-0.9-0.9c-2.42-0.01-4.54,1.6-5.21,3.92
			s0.3,4.81,2.36,6.08s4.71,1.02,6.49-0.62c0.2,1.9,1.85,3.32,3.76,3.22c1.91-0.1,3.41-1.68,3.4-3.6V18c0-5.97-4.84-10.8-10.8-10.8
			S16.2,12.03,16.2,18S21.03,28.8,27,28.8z"/>
	</g>
</g>
</svg>
