<?xml version="1.0" encoding="utf-8"?>
<!-- Generator: Adobe Illustrator 24.3.0, SVG Export Plug-In . SVG Version: 6.00 Build 0)  -->
<svg version="1.1" xmlns="http://www.w3.org/2000/svg" xmlns:xlink="http://www.w3.org/1999/xlink" x="0px" y="0px"
	 viewBox="0 0 15.11 10.77" style="enable-background:new 0 0 15.11 10.77;" xml:space="preserve">
<style type="text/css">
	.st0{fill:#808080;}
	.st1{fill:#5B5B5B;}
</style>
<g id="Layer_2">
</g>
<g id="Layer_1">
	<g>
		<path class="st0" d="M15.1,1.08c0-0.02,0.01-0.03,0.01-0.05L10.5,5.48l4.61,4.3c0-0.03-0.01-0.06-0.01-0.09V1.08z M15.1,1.08"/>
		<path class="st0" d="M9.8,6.16L7.91,7.97C7.82,8.06,7.7,8.11,7.57,8.11c-0.12,0-0.24-0.04-0.34-0.13L5.36,6.23L0.72,10.7
			c0.11,0.04,0.23,0.07,0.36,0.07h12.98c0.19,0,0.36-0.06,0.52-0.14L9.8,6.16z M9.8,6.16"/>
		<path class="st0" d="M7.57,6.94l7.04-6.78C14.45,0.06,14.26,0,14.06,0H1.08C0.82,0,0.59,0.1,0.4,0.25L7.57,6.94z M7.57,6.94"/>
		<path class="st0" d="M0,1.25v8.44c0,0.1,0.02,0.19,0.05,0.28l4.58-4.41L0,1.25z M0,1.25"/>
	</g>
</g>
</svg>
