<?xml version="1.0" encoding="utf-8"?>
<!-- Generator: Adobe Illustrator 24.3.0, SVG Export Plug-In . SVG Version: 6.00 Build 0)  -->
<svg version="1.1" xmlns="http://www.w3.org/2000/svg" xmlns:xlink="http://www.w3.org/1999/xlink" x="0px" y="0px"
	 viewBox="0 0 14.09 14.09" style="enable-background:new 0 0 14.09 14.09;" xml:space="preserve">
<style type="text/css">
	.st0{fill:#808080;}
	.st1{fill:#5B5B5B;}
</style>
<g id="Layer_2">
</g>
<g id="Layer_1">
	<g>
		<g>
			<path class="st0" d="M10.71,9.32c-0.46-0.45-1.04-0.45-1.49,0c-0.35,0.35-0.7,0.69-1.04,1.04c-0.09,0.1-0.17,0.12-0.29,0.05
				c-0.23-0.12-0.47-0.22-0.68-0.36C6.2,9.43,5.35,8.61,4.6,7.69c-0.37-0.46-0.7-0.95-0.94-1.5C3.62,6.08,3.63,6,3.72,5.91
				c0.35-0.34,0.69-0.68,1.03-1.03c0.48-0.48,0.48-1.04,0-1.53C4.47,3.08,4.2,2.81,3.93,2.53C3.65,2.25,3.37,1.97,3.08,1.69
				c-0.46-0.45-1.04-0.45-1.49,0C1.24,2.04,0.9,2.39,0.54,2.73c-0.33,0.31-0.5,0.7-0.53,1.15C-0.05,4.61,0.13,5.3,0.39,5.97
				C0.9,7.36,1.69,8.6,2.64,9.73c1.29,1.53,2.82,2.74,4.62,3.62c0.81,0.39,1.65,0.7,2.56,0.74c0.63,0.04,1.17-0.12,1.61-0.61
				c0.3-0.33,0.64-0.64,0.95-0.96c0.47-0.48,0.47-1.05,0.01-1.52C11.84,10.44,11.27,9.88,10.71,9.32L10.71,9.32z M10.71,9.32"/>
		</g>
		<path class="st0" d="M10.15,6.99l1.08-0.18c-0.17-0.99-0.64-1.89-1.35-2.61C9.13,3.44,8.18,2.96,7.13,2.82L6.98,3.9
			c0.81,0.11,1.55,0.48,2.14,1.06C9.66,5.52,10.02,6.22,10.15,6.99L10.15,6.99z M10.15,6.99"/>
		<path class="st0" d="M11.85,2.28C10.6,1.03,9.02,0.24,7.27,0L7.12,1.09c1.51,0.21,2.87,0.89,3.95,1.97
			c1.02,1.02,1.7,2.32,1.94,3.74l1.08-0.18C13.81,4.97,13.03,3.47,11.85,2.28L11.85,2.28z M11.85,2.28"/>
	</g>
</g>
</svg>
