<?xml version="1.0" encoding="utf-8"?>
<!-- Generator: Adobe Illustrator 24.3.0, SVG Export Plug-In . SVG Version: 6.00 Build 0)  -->
<svg version="1.1" xmlns="http://www.w3.org/2000/svg" xmlns:xlink="http://www.w3.org/1999/xlink" x="0px" y="0px"
	 viewBox="0 0 50.6 50.6" style="enable-background:new 0 0 50.6 50.6;" xml:space="preserve">
<style type="text/css">
	.st0{fill:#808080;}
	.st1{fill:#5B5B5B;}
</style>
<g id="Layer_2">
</g>
<g id="Layer_1">
	<g>
		<g>
			<g>
				<path class="st1" d="M35.44,50.6c-0.2,0-0.41-0.01-0.62-0.02c-2.85-0.16-5.78-1-9.21-2.67c-6.25-3.04-11.72-7.32-16.27-12.73
					c-3.65-4.33-6.25-8.67-7.95-13.25c-0.75-1.99-1.58-4.67-1.35-7.64c0.14-1.84,0.87-3.39,2.15-4.6C2.92,9,3.63,8.29,4.34,7.57
					C4.82,7.09,5.3,6.6,5.78,6.12c1.95-1.92,4.58-1.93,6.55-0.01c0.66,0.65,1.31,1.3,1.96,1.95l0.97,0.97
					c0.47,0.48,0.94,0.95,1.41,1.42c0.47,0.47,0.94,0.94,1.42,1.42c2.05,2.06,2.05,4.62,0.01,6.68l-0.49,0.5
					c-0.99,1-1.99,2.01-3,2.99c0.69,1.62,1.66,3.14,3.04,4.85c2.78,3.41,5.64,6.02,8.76,7.98c0.41,0.25,0.85,0.47,1.32,0.7
					c0.28,0.14,0.56,0.28,0.84,0.42c1.21-1.23,2.37-2.38,3.54-3.54c1.95-1.94,4.59-1.94,6.55,0c0,0,0,0,0,0
					c1.93,1.92,3.87,3.85,5.79,5.78c1.99,2.01,1.99,4.62-0.02,6.65c-0.38,0.38-0.76,0.76-1.15,1.13c-0.71,0.69-1.45,1.41-2.11,2.14
					C39.7,49.79,37.82,50.6,35.44,50.6z M9.06,6.67c-0.64,0-1.28,0.29-1.87,0.88C6.71,8.02,6.23,8.5,5.76,8.98
					c-0.72,0.73-1.45,1.46-2.19,2.17c-0.93,0.88-1.43,1.96-1.53,3.31c-0.15,2.01,0.23,4.1,1.23,6.78c1.62,4.37,4.11,8.51,7.61,12.66
					c4.37,5.19,9.62,9.3,15.61,12.21c3.22,1.56,5.83,2.33,8.45,2.47c2.05,0.12,3.56-0.45,4.75-1.78c0.7-0.79,1.47-1.53,2.2-2.24
					c0.38-0.37,0.75-0.73,1.12-1.1c1.23-1.25,1.24-2.61,0.02-3.83c-1.92-1.93-3.85-3.85-5.78-5.77c-1.19-1.18-2.55-1.18-3.74,0
					c-1.2,1.19-2.4,2.38-3.58,3.59c-0.83,0.85-1.65,0.66-2.2,0.35c-0.28-0.15-0.59-0.3-0.89-0.45c-0.5-0.24-1.01-0.5-1.5-0.8
					c-3.31-2.08-6.33-4.83-9.25-8.41c-1.55-1.9-2.62-3.62-3.37-5.41c-0.32-0.77-0.19-1.46,0.4-2.04c1.04-1.01,2.05-2.03,3.06-3.05
					l0.5-0.5c1.27-1.28,1.27-2.58-0.01-3.86c-0.47-0.48-0.94-0.94-1.41-1.41c-0.47-0.47-0.94-0.94-1.41-1.42l-0.97-0.97
					c-0.64-0.65-1.28-1.29-1.93-1.93C10.34,6.96,9.7,6.67,9.06,6.67z"/>
			</g>
		</g>
		<g>
			<path class="st1" d="M36.02,26.09c-0.48,0-0.9-0.34-0.98-0.83c-0.42-2.45-1.57-4.67-3.32-6.42c-1.85-1.85-4.2-3.02-6.8-3.39
				c-0.55-0.08-0.93-0.58-0.85-1.13l0.53-3.75c0.08-0.55,0.58-0.93,1.13-0.85c3.84,0.54,7.32,2.27,10.08,5.03
				c2.61,2.62,4.32,5.92,4.94,9.54c0.04,0.26-0.02,0.53-0.17,0.75c-0.15,0.22-0.39,0.36-0.65,0.41l-3.73,0.64
				C36.13,26.09,36.07,26.09,36.02,26.09z M26.18,13.65c2.64,0.56,5.02,1.86,6.95,3.78c1.81,1.81,3.07,4.05,3.68,6.52l1.76-0.3
				c-0.67-2.82-2.1-5.39-4.19-7.48c-2.2-2.2-4.94-3.67-7.95-4.29L26.18,13.65z"/>
		</g>
		<g>
			<path class="st1" d="M45.87,25.44c-0.48,0-0.9-0.34-0.98-0.83c-0.8-4.7-3.02-8.97-6.41-12.36c-3.57-3.56-8.09-5.82-13.06-6.51
				c-0.26-0.04-0.5-0.18-0.66-0.39s-0.23-0.48-0.19-0.74l0.53-3.75c0.08-0.55,0.59-0.93,1.13-0.85C32.44,0.88,38.1,3.7,42.56,8.16
				c0,0,0,0,0,0c4.23,4.25,7.01,9.6,8.02,15.47c0.05,0.26-0.02,0.53-0.17,0.75s-0.39,0.36-0.65,0.41l-3.73,0.64
				C45.98,25.44,45.92,25.44,45.87,25.44z M26.68,3.92c5.02,0.9,9.57,3.28,13.21,6.92c3.45,3.44,5.77,7.73,6.78,12.45l1.76-0.3
				c-1.07-5.08-3.58-9.7-7.28-13.42l0,0c-3.92-3.92-8.82-6.47-14.22-7.43L26.68,3.92z"/>
		</g>
	</g>
</g>
</svg>
