<?xml version="1.0" encoding="utf-8"?>
<!-- Generator: Adobe Illustrator 24.3.0, SVG Export Plug-In . SVG Version: 6.00 Build 0)  -->
<svg version="1.1" xmlns="http://www.w3.org/2000/svg" xmlns:xlink="http://www.w3.org/1999/xlink" x="0px" y="0px"
	 viewBox="0 0 102.04 64" style="enable-background:new 0 0 102.04 64;" xml:space="preserve">
<style type="text/css">
	.st0{fill:#808080;}
	.st1{fill:#5B5B5B;}
</style>
<g id="Layer_2">
</g>
<g id="Layer_1">
	<g>
		<g>
			<path class="st1" d="M8.22,34.12c0.11,0,0.23-0.01,0.34-0.04c0.8-0.19,1.3-0.99,1.11-1.8c-0.14-0.6-0.43-1.85-0.02-2.39
				c0.29-0.38,1.07-0.61,2.19-0.65c4.44-0.16,5.8-2.21,7.12-4.19c0.71-1.06,1.44-2.16,2.76-3.19c1.31-1.01,1.87-1.03,1.96-1.03
				c0.08,0.09,0.67,0.84,0.45,4.13c-0.11,1.73,0.22,3,1.02,3.88c1.12,1.24,2.75,1.29,4.06,1.34c0.59,0.02,1.15,0.04,1.55,0.15
				c1.27,0.35,2.39,0.24,3.28,0.15c0.55-0.06,1.12-0.11,1.24,0.02c0.6,0.65,1.28,0.97,2.03,0.95c1.41-0.04,2.37-1.2,3.81-2.97
				c0.13-0.16,0.27-0.33,0.41-0.5c0.08-0.1,0.13-0.15,0.17-0.17c0.21,0.05,0.67,0.32,0.98,0.51c1.1,0.67,2.77,1.69,4.86,0.8
				c2.29-0.98,2.88-1.71,4-3.26c0.41-0.56,0.91-1.26,1.68-2.18c1.35-1.61,3.31-2.08,4.12-1.71c0.13,0.06,0.52,0.24,0.33,1.32
				c-0.26,1.54,0.03,2.7,0.88,3.45c1.47,1.29,3.77,0.59,5.44,0.07c0.38-0.12,0.82-0.25,1.01-0.28c0.15-0.01,0.58,0.09,0.87,0.16
				c1.45,0.36,4.47,1.1,5.96-3.17c1.01-2.89,1.75-2.99,3.94-3.32c0.23-0.03,0.47-0.07,0.72-0.11c4.87-0.78,5.78-3.97,6.51-6.53
				c0.21-0.73,0.4-1.41,0.68-2.04c0.45-1.03,1.27-1.56,2.31-2.22c1.34-0.86,3-1.92,3.7-4.31c0.34-1.14,1.3-1.8,1.82-1.97
				c-0.01,0.29-0.11,0.81-0.43,1.6c-1.13,2.76-1.36,4.28-0.83,5.44c0.49,1.05,1.46,1.38,2.04,1.57c0.22,0.07,0.44,0.14,0.54,0.21
				c0,0,0.01,0.01,0.03,0.03c0.55,0.62,1.49,0.67,2.11,0.12c0.62-0.55,0.67-1.49,0.12-2.11c-0.17-0.19-0.35-0.36-0.55-0.49
				c-0.47-0.32-0.93-0.48-1.31-0.6c-0.08-0.03-0.18-0.06-0.26-0.09c0-0.29,0.12-1.09,0.87-2.95c0.87-2.14,0.87-3.77-0.01-4.82
				c-0.65-0.78-1.68-1.09-2.81-0.86c-1.59,0.33-3.54,1.84-4.2,4.08c-0.39,1.31-1.25,1.87-2.45,2.63c-1.23,0.79-2.63,1.69-3.44,3.55
				c-0.35,0.81-0.58,1.62-0.81,2.41c-0.67,2.36-1.12,3.92-4.11,4.4c-0.24,0.04-0.47,0.07-0.69,0.1c-2.43,0.36-4.72,0.69-6.33,5.29
				c-0.6,1.71-1.02,1.61-2.42,1.26c-0.65-0.16-1.32-0.32-2.03-0.22c-0.41,0.06-0.89,0.21-1.45,0.38c-0.56,0.17-2,0.61-2.54,0.53
				c-0.01-0.11-0.02-0.32,0.04-0.69c0.36-2.09-0.4-3.78-2.03-4.53c-2.25-1.04-5.62,0.06-7.67,2.5c-0.84,1-1.38,1.75-1.81,2.35
				c-0.92,1.27-1.13,1.57-2.76,2.26c-0.61,0.26-1.09,0.03-2.12-0.6c-1.03-0.62-3.16-1.92-5,0.31c-0.15,0.18-0.28,0.35-0.42,0.51
				c-0.51,0.62-1.11,1.36-1.5,1.71c-1.1-1.04-2.47-0.91-3.57-0.8c-0.75,0.08-1.45,0.15-2.18-0.06c-0.75-0.21-1.51-0.23-2.25-0.26
				c-0.78-0.03-1.67-0.06-1.94-0.36c-0.1-0.11-0.33-0.5-0.25-1.68c0.16-2.44,0.12-5.83-2.03-6.97c-2.08-1.1-4.42,0.71-5.19,1.31
				c-1.72,1.33-2.66,2.76-3.42,3.9c-1.18,1.78-1.83,2.76-4.74,2.86c-2.09,0.07-3.59,0.69-4.46,1.83c-1.27,1.66-0.76,3.84-0.51,4.88
				C6.93,33.65,7.54,34.12,8.22,34.12L8.22,34.12z M99.08,24.76c-0.42-0.52-0.83-0.99-1.23-1.45c-1.81-2.06-2.35-2.84-1.83-4.13
				c0.12-0.29,0.22-0.61,0.31-0.93c0.22-0.8-0.25-1.62-1.05-1.84c-0.8-0.22-1.62,0.25-1.83,1.05c-0.06,0.21-0.12,0.4-0.2,0.59
				c-1.27,3.11,0.57,5.2,2.35,7.23c0.38,0.43,0.77,0.88,1.15,1.35c1.32,1.63,2.19,4.29,2.31,5.56c-3.09-0.8-4.82-2.24-5.14-4.27
				l-0.08-0.54c-0.36-2.4-0.74-4.87-2.84-5.4c-1.32-0.33-3.02,0.11-4.14,1.07c-0.98,0.84-1.46,2.02-1.34,3.31
				c0.04,0.4,0.09,0.82,0.15,1.27c0.2,1.56,0.5,3.91-0.37,4.51c-2.15,1.47-2.38,3.76-2.63,6.18c-0.05,0.52-0.11,1.07-0.18,1.63
				c-0.21,1.6,0.36,2.45,0.88,2.88c1.31,1.08,3.18,0.47,4.69-0.03c0.34-0.11,0.65-0.22,0.89-0.27c0.54-0.13,1.31,0.82,2.4,3.01
				c0.32,0.64,0.68,1.19,0.99,1.68c1.04,1.6,1.86,2.87,0.94,7.19c-0.4,1.88-0.98,2.5-1.17,2.6c-0.14-0.09-0.4-0.52-0.24-1.03
				c0.66-2.16,0.65-3.83-0.05-4.97c-0.45-0.74-1.16-1.22-2.04-1.38c-0.89-0.16-1.45-0.04-2.06,0.45c-0.16,0.12-0.57,0.45-2.66,0.81
				c-2.34,0.4-2.8,0.03-3.89-0.87c-0.5-0.41-1.12-0.92-1.98-1.41c-1.46-0.84-2.51-0.61-3.14-0.27c-1.85,0.99-2.11,3.82-2.38,8.35
				c-0.04,0.64-0.18,1.08-0.39,1.25c-0.48,0.39-1.99,0.15-3.21-0.03c-1.45-0.22-3.08-0.47-4.58-0.13c-2.03,0.47-3.5-0.06-4.68-0.49
				c-0.7-0.25-1.31-0.47-1.96-0.47c-1.56,0-1.99,1.52-2.18,2.16c-0.06,0.23-0.18,0.64-0.28,0.77c-0.07,0.01-0.35,0.03-0.94-0.18
				c-3.02-1.06-4.83,0.07-6.03,0.82c-0.64,0.4-1.03,0.63-1.44,0.63c-1.35,0-4.57-0.34-5.43-3.51c-0.86-3.18-3.33-3.42-4.66-3.55
				c-0.15-0.01-0.32-0.03-0.47-0.05c-0.53-3.11-3.77-3.26-7.83-3.45c-2.68-0.12-3.92,0.6-4.26,2.49c-0.01,0.07-0.03,0.15-0.04,0.2
				c-0.05,0.03-0.15,0.07-0.33,0.11c-1.89,0.47-3.83-1.91-4.06-2.63c-0.4-1.23-1.79-3.17-6.61-2.31c-2.68,0.48-2.86,3.1-2.95,4.51
				c-0.01,0.21-0.03,0.48-0.06,0.7c-1.82,0.16-2.66,2.06-3.22,3.42c-0.4-1.37-1.21-3.22-3.65-4.57c-0.63-0.35-1.39-0.92-1.43-1.68
				c-0.02-0.41,0.17-0.76,0.31-0.94c1.1,0.03,4.36-0.07,5.72-2.13c0.57-0.86,0.99-2.36-0.22-4.57c-0.61-1.1-0.81-2.24-0.63-3.47
				c0.12-0.82-0.44-1.58-1.25-1.7c-0.82-0.12-1.58,0.44-1.7,1.26c-0.28,1.88,0.04,3.68,0.96,5.36c0.38,0.68,0.51,1.23,0.35,1.48
				c-0.42,0.64-2.4,0.87-3.3,0.78c-1.4-0.14-2.61,1.22-3.03,2.58c-0.26,0.82-0.82,3.67,2.77,5.65c1.78,0.98,2.09,2.22,2.39,3.41
				c0.24,0.95,0.6,2.38,2.14,2.69c1.92,0.38,2.74-1.59,3.28-2.89c0.21-0.51,0.6-1.43,0.87-1.69c0.8,0.05,1.35-0.26,1.66-0.53
				c0.87-0.74,0.95-1.92,1.02-2.96c0.1-1.46,0.22-1.72,0.49-1.77c2.17-0.39,3.13-0.03,3.24,0.28c0.66,2.05,3.96,5.53,7.63,4.62
				c2.2-0.55,2.46-1.99,2.59-2.68c0,0,0-0.01,0-0.01c0.19-0.03,0.55-0.07,1.18-0.04c1.89,0.09,3.53,0.18,4.42,0.47
				c0.58,0.18,0.59,0.32,0.62,0.65c0.21,2.09,2.17,2.28,3.1,2.38c1.24,0.12,1.76,0.22,2.07,1.35C41.1,63.59,46.4,64,47.98,64
				c1.29,0,2.25-0.6,3.03-1.09c1.07-0.67,1.78-1.12,3.45-0.53c1.34,0.47,2.43,0.48,3.32,0.01c1.11-0.57,1.49-1.66,1.71-2.41
				c0.1,0.04,0.21,0.07,0.3,0.11c1.38,0.5,3.48,1.25,6.36,0.59c0.94-0.21,2.22-0.02,3.46,0.17c1.98,0.3,4.04,0.61,5.54-0.6
				c0.9-0.73,1.4-1.87,1.49-3.4c0.1-1.76,0.29-4.93,0.77-5.8c0.07,0.03,0.15,0.07,0.27,0.13c0.65,0.37,1.12,0.76,1.58,1.13
				c1.57,1.29,2.86,2.09,6.29,1.51c2.22-0.38,3.16-0.81,3.73-1.21c0.09,0.25,0.17,1-0.29,2.47c-0.43,1.4-0.07,2.96,0.92,3.96
				c0.82,0.83,1.93,1.14,2.99,0.83c1.1-0.32,2.55-1.42,3.29-4.86c1.18-5.53-0.11-7.51-1.35-9.43c-0.3-0.46-0.58-0.9-0.83-1.39
				c-1-2-2.68-5.36-5.8-4.58c-0.34,0.09-0.71,0.21-1.1,0.34c-0.42,0.14-1.19,0.39-1.68,0.47c0-0.02,0.01-0.05,0.01-0.08
				c0.08-0.61,0.14-1.18,0.19-1.72c0.23-2.25,0.38-3.36,1.34-4.02c2.38-1.63,1.95-4.94,1.65-7.36c-0.05-0.42-0.1-0.81-0.14-1.16
				c-0.03-0.32,0.06-0.55,0.31-0.77c0.43-0.37,1.09-0.48,1.39-0.45c0.3,0.4,0.53,1.93,0.69,2.96l0.08,0.55
				c0.38,2.42,2.09,5.58,8.13,6.89c1.04,0.23,1.98-0.15,2.51-1C103,32.03,100.76,26.84,99.08,24.76L99.08,24.76z M41.45,33.38"/>
		</g>
	</g>
</g>
</svg>
