<?xml version="1.0" encoding="utf-8"?>
<!-- Generator: Adobe Illustrator 24.3.0, SVG Export Plug-In . SVG Version: 6.00 Build 0)  -->
<svg version="1.1" xmlns="http://www.w3.org/2000/svg" xmlns:xlink="http://www.w3.org/1999/xlink" x="0px" y="0px"
	 viewBox="0 0 59.43 54" style="enable-background:new 0 0 59.43 54;" xml:space="preserve">
<style type="text/css">
	.st0{fill:#808080;}
	.st1{fill:#5B5B5B;}
</style>
<g id="Layer_2">
</g>
<g id="Layer_1">
	<g>
		<path class="st1" d="M56.51,0H36.98c-1.61,0-2.92,1.31-2.92,2.92v18.72c0,1.61,1.31,2.92,2.92,2.92h19.53
			c1.61,0,2.92-1.31,2.92-2.92V2.92C59.43,1.31,58.12,0,56.51,0L56.51,0z M49.7,2.32v3.94l-0.37-0.21c-0.37-0.21-0.83-0.2-1.19,0.02
			l-1.3,0.81l-1.2-0.79c-0.36-0.24-0.84-0.25-1.21-0.04l-0.37,0.21V2.32H49.7z M57.11,21.64c0,0.33-0.27,0.6-0.6,0.6H36.98
			c-0.33,0-0.6-0.27-0.6-0.6V2.92c0-0.33,0.27-0.6,0.6-0.6h4.76v5.94c0,0.87,0.98,1.44,1.74,1.01l1.49-0.85l1.23,0.81
			c0.37,0.25,0.87,0.25,1.25,0.02l1.34-0.84l1.5,0.86c0.76,0.43,1.74-0.13,1.74-1.01V2.32h4.49c0.33,0,0.6,0.27,0.6,0.6V21.64z
			 M57.11,21.64"/>
		<path class="st1" d="M45.08,16.92h-4.37c-0.64,0-1.16,0.52-1.16,1.16c0,0.64,0.52,1.16,1.16,1.16h4.37c0.64,0,1.16-0.52,1.16-1.16
			C46.24,17.44,45.72,16.92,45.08,16.92L45.08,16.92z M45.08,16.92"/>
		<g>
			<path class="st1" d="M42.44,28.26H9.73c-4.09,0-7.41-3.32-7.41-7.41c0-4.09,3.32-7.41,7.41-7.41h14.92
				c0.64,0,1.16-0.52,1.16-1.16c0-0.64-0.52-1.16-1.16-1.16H9.73C4.36,11.12,0,15.48,0,20.85s4.36,9.73,9.73,9.73h32.71
				c2.5,0,4.53,2.03,4.53,4.53c0,2.5-2.03,4.53-4.53,4.53h-9.08l1.2-1.2c0.45-0.45,0.45-1.19,0-1.64c-0.45-0.45-1.19-0.45-1.64,0
				l-3.19,3.19c-0.45,0.45-0.45,1.19,0,1.64l3.19,3.19c0.45,0.45,1.19,0.45,1.64,0c0.45-0.45,0.45-1.19,0-1.64l-1.2-1.2h9.08
				c3.78,0,6.85-3.07,6.85-6.85S46.22,28.26,42.44,28.26L42.44,28.26z M42.44,28.26"/>
			<path class="st1" d="M18.64,33.41c-4.4,0-7.98,3.58-7.98,7.98c0,1.64,0.51,3.33,1.5,4.65l5.55,7.49c0.46,0.62,1.41,0.62,1.86,0
				l5.56-7.49c0.99-1.32,1.5-3.01,1.5-4.65C26.63,36.99,23.05,33.41,18.64,33.41L18.64,33.41z M23.25,44.68
				c-0.01,0.01-0.02,0.02-0.02,0.04l-4.58,6.18l-4.58-6.18c-0.67-1.01-1.08-2.1-1.08-3.32c0-3.12,2.54-5.66,5.66-5.66
				c3.12,0,5.66,2.54,5.66,5.66C24.31,42.58,23.94,43.72,23.25,44.68L23.25,44.68z M23.25,44.68"/>
		</g>
		<path class="st1" d="M18.64,37.76c-2,0-3.63,1.63-3.63,3.63c0,2,1.63,3.63,3.63,3.63c2,0,3.63-1.63,3.63-3.63
			C22.28,39.39,20.65,37.76,18.64,37.76L18.64,37.76z M18.64,42.71c-0.72,0-1.31-0.59-1.31-1.31c0-0.72,0.59-1.31,1.31-1.31
			c0.72,0,1.31,0.59,1.31,1.31C19.96,42.12,19.37,42.71,18.64,42.71L18.64,42.71z M18.64,42.71"/>
		<path class="st1" d="M28.85,12.72c0.24,0.59,0.93,0.87,1.52,0.63c0.58-0.24,0.87-0.93,0.63-1.52c-0.24-0.58-0.93-0.87-1.52-0.63
			C28.9,11.45,28.61,12.14,28.85,12.72L28.85,12.72z M28.85,12.72"/>
	</g>
</g>
</svg>
