<?xml version="1.0" encoding="utf-8"?>
<!-- Generator: Adobe Illustrator 24.3.0, SVG Export Plug-In . SVG Version: 6.00 Build 0)  -->
<svg version="1.1" xmlns="http://www.w3.org/2000/svg" xmlns:xlink="http://www.w3.org/1999/xlink" x="0px" y="0px"
	 viewBox="0 0 58 58" style="enable-background:new 0 0 58 58;" xml:space="preserve">
<style type="text/css">
	.st0{fill:#808080;}
	.st1{fill:#5B5B5B;}
</style>
<g id="Layer_2">
</g>
<g id="Layer_1">
	<g>
		<path class="st1" d="M35.21,24.91c0.45,0.79,1.3,1.28,2.21,1.28c0.91,0,1.76-0.49,2.21-1.28l5.91-10.34
			c0.81-1.41,1.23-3.02,1.23-4.64V9.35c0-5.16-4.2-9.35-9.35-9.35s-9.35,4.2-9.35,9.35v0.57c0,1.62,0.43,3.23,1.23,4.64L35.21,24.91
			z M29.94,9.35c0-4.13,3.36-7.48,7.48-7.48s7.48,3.36,7.48,7.48v0.57c0,1.3-0.34,2.58-0.99,3.71l-5.91,10.34
			c-0.24,0.42-0.93,0.42-1.17,0l-5.91-10.34c-0.65-1.13-0.99-2.41-0.99-3.71V9.35z"/>
		<path class="st1" d="M37.42,14.97c3.1,0,5.61-2.52,5.61-5.61s-2.52-5.61-5.61-5.61c-3.1,0-5.61,2.52-5.61,5.61
			S34.32,14.97,37.42,14.97z M37.42,5.61c2.06,0,3.74,1.68,3.74,3.74s-1.68,3.74-3.74,3.74s-3.74-1.68-3.74-3.74
			S35.36,5.61,37.42,5.61z"/>
		<path class="st1" d="M39.29,48.65v1.87h16.84v2.81c0,1.55-1.26,2.81-2.81,2.81H4.68c-1.55,0-2.81-1.26-2.81-2.81v-2.81h16.84
			v-1.87H0v4.68C0,55.9,2.1,58,4.68,58h48.65C55.9,58,58,55.9,58,53.32v-4.68H39.29z"/>
		<path class="st1" d="M23.39,54.26h11.23c1.55,0,2.81-1.26,2.81-2.81v-2.81H20.58v2.81C20.58,53,21.84,54.26,23.39,54.26z
			 M22.45,50.52h13.1v0.94c0,0.52-0.42,0.94-0.94,0.94H23.39c-0.52,0-0.94-0.42-0.94-0.94V50.52z"/>
		<path class="st1" d="M3.74,16.84c0-1.55,1.26-2.81,2.81-2.81h20.58v-1.87H6.55c-2.58,0-4.68,2.1-4.68,4.68v29.94h1.87V16.84z"/>
		<path class="st1" d="M54.26,16.84v29.94h1.87V16.84c0-2.58-2.1-4.68-4.68-4.68h-3.74v1.87h3.74C53,14.03,54.26,15.29,54.26,16.84z
			"/>
		<path class="st1" d="M50.52,23.39H42.1v1.87h8.42v5.61H23.39v15.9h1.87V32.74h25.26v14.03h1.87v-29c0-1.03-0.84-1.87-1.87-1.87
			h-2.81v1.87h2.81V23.39z"/>
		<path class="st1" d="M17.77,25.26v-7.48h5.61v7.48h9.35v-1.87h-7.48v-5.61h1.87V15.9H7.48c-1.03,0-1.87,0.84-1.87,1.87v29h1.87
			V32.74h8.42v14.03h1.87v-15.9H7.48v-5.61H17.77z M15.9,17.77v5.61H7.48v-5.61H15.9z"/>
		<polygon class="st1" points="44.9,46.77 44.9,38.35 30.87,38.35 30.87,46.77 32.74,46.77 32.74,40.23 43.03,40.23 43.03,46.77 		
			"/>
	</g>
</g>
</svg>
